<?xml version="1.0" encoding="UTF-8"?>
<svg id="Layer_1" xmlns="http://www.w3.org/2000/svg" viewBox="0 0 16 16">
<path d="m12.369,7.088l.588-.588-1.061-1.061-.707.707.354.354-.551.551c-2.071.237-3.704,1.869-3.941,3.94l-.551.551-.354-.354-.707.707,1.061,1.061.588-.588c.406,2.066,2.228,3.631,4.412,3.631,2.481,0,4.5-2.019,4.5-4.5,0-2.184-1.564-4.006-3.631-4.412Zm-.869,7.912c-1.93,0-3.5-1.57-3.5-3.5s1.57-3.5,3.5-3.5,3.5,1.57,3.5,3.5-1.57,3.5-3.5,3.5Z" class="aw-theme-iconOutline" fill="#464646" stroke-width="0"/>
<polygon points="12 11.013 12 9 11.027 9 11.027 11.013 9.014 11.013 9.014 11.986 11.027 11.986 11.027 14 12 14 12 11.986 14.014 11.986 14.014 11.013 12 11.013" class="aw-theme-iconOutline" fill="#464646" stroke-width="0"/>
<rect x="3.123" y="8.3" width="1.004" height="2.15" transform="translate(-5.567 5.307) rotate(-44.991)" class="aw-theme-iconOutline" fill="#464646" stroke-width="0"/>
<polygon points="1.811 6.854 1.457 6.5 1.811 6.146 1.104 5.439 .043 6.5 1.104 7.561 1.811 6.854" class="aw-theme-iconOutline" fill="#464646" stroke-width="0"/>
<rect x="2.55" y="3.123" width="2.15" height="1.004" transform="translate(-1.501 3.625) rotate(-45)" class="aw-theme-iconOutline" fill="#464646" stroke-width="0"/>
<polygon points="6.5 1.457 6.854 1.811 7.561 1.104 6.5 .043 5.439 1.104 6.146 1.811 6.5 1.457" class="aw-theme-iconOutline" fill="#464646" stroke-width="0"/>
<rect x="8.873" y="2.55" width="1.004" height="2.15" transform="translate(.183 7.692) rotate(-45.009)" class="aw-theme-iconOutline" fill="#464646" stroke-width="0"/>
<rect x="-.177" y="11.812" width="3.738" height="1" transform="translate(-8.21 4.802) rotate(-45)" class="aw-theme-iconOutline" fill="#464646" stroke-width="0"/>
<rect x="10.454" y="1.184" width="3.73" height="1" transform="translate(2.417 9.204) rotate(-45)" class="aw-theme-iconOutline" fill="#464646" stroke-width="0"/>
</svg>