<?xml version="1.0" encoding="UTF-8"?>
<svg id="Layer_1" xmlns="http://www.w3.org/2000/svg" viewBox="0 0 16 16">
<path d="m11.915,7.042l3.041-3.041L11,.043l-3.958,3.957,3.201,3.2c-.976.286-1.816.882-2.395,1.69l-2.848-2.847-3.957,3.957,3.957,3.957,2.042-2.042c.213,2.284,2.119,4.085,4.458,4.085,2.481,0,4.5-2.019,4.5-4.5,0-2.339-1.8-4.245-4.085-4.458Zm-.915-5.584l2.542,2.543-2.542,2.542-2.543-2.542,2.543-2.543ZM2.457,10l2.543-2.543,2.34,2.339c-.078.19-.132.39-.184.591l-2.156,2.155-2.543-2.543Zm9.043,5c-1.93,0-3.5-1.57-3.5-3.5s1.57-3.5,3.5-3.5,3.5,1.57,3.5,3.5-1.57,3.5-3.5,3.5Z" class="aw-theme-iconOutline" fill="#464646" stroke-width="0"/>
<polygon points="12 11.013 12 9 11.027 9 11.027 11.013 9.014 11.013 9.014 11.986 11.027 11.986 11.027 14 12 14 12 11.986 14.014 11.986 14.014 11.013 12 11.013" class="aw-theme-iconOutline" fill="#464646" stroke-width="0"/>
<rect x="-.05" y="13.141" width="2.817" height="1" transform="translate(-9.247 4.956) rotate(-45)" class="aw-theme-iconOutline" fill="#464646" stroke-width="0"/>
<rect x="7.099" y="6.513" width="1.775" height="1" transform="translate(-2.62 7.702) rotate(-45)" class="aw-theme-iconOutline" fill="#464646" stroke-width="0"/>
<rect x="13.115" y=".5" width="1.771" height="1" transform="translate(3.393 10.192) rotate(-45)" class="aw-theme-iconOutline" fill="#464646" stroke-width="0"/>
</svg>