<?xml version="1.0" encoding="UTF-8"?>
<svg id="Layer_1" xmlns="http://www.w3.org/2000/svg" viewBox="0 0 16 16">
<path d="m12.369,7.088l.588-.588L6.5.043.043,6.5l6.457,6.457.588-.588c.406,2.066,2.228,3.631,4.412,3.631,2.481,0,4.5-2.019,4.5-4.5,0-2.184-1.564-4.006-3.631-4.412Zm-10.912-.588L6.5,1.457l5.043,5.043-.551.551c-2.071.237-3.704,1.869-3.941,3.94l-.551.551L1.457,6.5Zm10.043,8.5c-1.93,0-3.5-1.57-3.5-3.5s1.57-3.5,3.5-3.5,3.5,1.57,3.5,3.5-1.57,3.5-3.5,3.5Z" class="aw-theme-iconOutline" fill="#464646" stroke-width="0"/>
<polygon points="12 11.013 12 9 11.027 9 11.027 11.013 9.014 11.013 9.014 11.986 11.027 11.986 11.027 14 12 14 12 11.986 14.014 11.986 14.014 11.013 12 11.013" class="aw-theme-iconOutline" fill="#464646" stroke-width="0"/>
<rect x="-.177" y="11.812" width="3.738" height="1" transform="translate(-8.21 4.802) rotate(-45)" class="aw-theme-iconOutline" fill="#464646" stroke-width="0"/>
<rect x="10.454" y="1.184" width="3.73" height="1" transform="translate(2.417 9.204) rotate(-45)" class="aw-theme-iconOutline" fill="#464646" stroke-width="0"/>
</svg>