<?xml version="1.0" encoding="UTF-8"?>
<svg id="Layer_1" xmlns="http://www.w3.org/2000/svg" viewBox="0 0 16 16">
<path d="m11.867,7.037l2.004-2.207c.133-.146.167-.357.087-.539-.08-.181-.259-.297-.457-.297h-3.788l3.158-3.139c.144-.143.187-.358.109-.545-.077-.188-.26-.31-.462-.31h-5.248c-.123,0-.24.045-.332.126L.184,6.121c-.155.138-.209.357-.135.552.074.194.26.322.467.322h4.354l-1.848,8.398c-.049.222.058.447.259.552.073.037.151.056.229.056.138,0,.273-.057.37-.164l3.201-3.527c.383,2.096,2.214,3.691,4.418,3.691,2.481,0,4.5-2.019,4.5-4.5,0-2.356-1.826-4.273-4.133-4.463Zm-7.464,6.736l1.578-7.171c.033-.148-.004-.303-.099-.421-.095-.118-.238-.187-.39-.187H1.833L7.459,1h3.846l-3.158,3.139c-.144.143-.187.358-.11.545.078.188.26.31.462.31h3.871l-1.954,2.153c-1.758.438-3.096,1.905-3.354,3.726-.029.02-.061.035-.085.063l-2.576,2.838Zm7.098,1.227c-1.93,0-3.5-1.57-3.5-3.5s1.57-3.5,3.5-3.5,3.5,1.57,3.5,3.5-1.57,3.5-3.5,3.5Z" class="aw-theme-iconOutline" fill="#464646" stroke-width="0"/>
<polygon points="12 11.014 12 9 11.027 9 11.027 11.014 9.014 11.014 9.014 11.986 11.027 11.986 11.027 14 12 14 12 11.986 14.014 11.986 14.014 11.014 12 11.014" class="aw-theme-iconOutline" fill="#464646" stroke-width="0"/>
</svg>