<?xml version="1.0" encoding="UTF-8"?>
<svg id="Layer_1" xmlns="http://www.w3.org/2000/svg" viewBox="0 0 16 16">
<path d="m15.013,8.722V2.002H6.514l-.979-1.366C5.254.245,4.799.01,4.317.01l-3.223-.003C.5.006.017.479.017,1.06v12.938l7.746.004c.808,1.204,2.181,1.998,3.737,1.998,2.481,0,4.5-2.019,4.5-4.5,0-1.053-.379-2.011-.987-2.778ZM1.02,12.998l.074-11.992,3.222.003c.161,0,.312.078.406.209l1.278,1.784h8.011v4.766c-.664-.449-1.459-.71-2.311-.748l.119-.099c.161-.135.222-.356.149-.554-.071-.198-.259-.33-.47-.33h-1.829l1.165-1.194c.141-.144.182-.358.104-.543-.078-.185-.26-.306-.461-.306h-3.638c-.125,0-.245.046-.336.13l-3.303,3.006c-.153.139-.205.357-.13.55.075.193.26.32.466.32h2.375l-.849,3.378c-.053.21.036.431.219.546.082.051.174.076.266.076.114,0,.228-.039.32-.116l1.194-.996c-.028.202-.062.402-.062.612,0,.529.108,1.03.277,1.502l-6.257-.003Zm6.739-3.993l-1.352,1.127.631-2.51c.038-.149.004-.308-.09-.43-.095-.122-.24-.192-.395-.192h-1.724l2.204-2.006h2.258l-1.166,1.194c-.14.144-.181.358-.103.543.078.185.26.306.461.306h1.636l-.399.333c-.801.346-1.481.917-1.961,1.635Zm3.741,5.995c-1.93,0-3.5-1.57-3.5-3.5s1.57-3.5,3.5-3.5,3.5,1.57,3.5,3.5-1.57,3.5-3.5,3.5Z" class="aw-theme-iconOutline" fill="#464646" stroke-width="0"/>
<polygon points="12 9 11.027 9 11.027 11.014 9.014 11.014 9.014 11.986 11.027 11.986 11.027 14 12 14 12 11.986 14.014 11.986 14.014 11.014 12 11.014 12 9" class="aw-theme-iconOutline" fill="#464646" stroke-width="0"/></svg>