<?xml version="1.0" encoding="utf-8"?>
<!-- Generator: Adobe Illustrator 27.6.1, SVG Export Plug-In . SVG Version: 6.00 Build 0)  -->
<svg version="1.1" id="Livello_1" xmlns="http://www.w3.org/2000/svg" xmlns:xlink="http://www.w3.org/1999/xlink" x="0px" y="0px"
	 viewBox="0 0 16 16" style="enable-background:new 0 0 16 16;" xml:space="preserve">
<style type="text/css">
	.st0{fill:#464646;}
</style>
<path id="path852" class="st0" d="M11.2,0c-0.7,0-1.4,0.2-2.1,0.5C8.2,0.9,7.4,1.7,7.1,2.7C6.9,3.2,6.8,3.7,6.8,4.3
	c0,0.5,0,1,0.1,1.5c-2,1.8-4,3.5-5.9,5.2c-0.3,0.3-0.6,0.6-0.7,0.9C0.1,12.3,0,12.7,0,13.1c0,1.1,0.7,2.1,1.7,2.6
	C2.1,15.9,2.6,16,3.1,16c0.8,0,1.5-0.4,2-1c0.6-0.7,1.2-1.3,1.8-2c-0.2-0.5-0.2-1-0.2-1.4c-0.3,0.3-0.5,0.5-0.7,0.8
	C5.3,13,4.7,13.8,4,14.5c-0.3,0.2-0.7,0.4-1,0.4c-0.5,0-0.9-0.1-1.2-0.4c-0.3-0.3-0.6-0.8-0.6-1.2c0-0.4,0.1-0.8,0.3-1.1
	c0.5-0.5,1.2-1,1.7-1.6c1.5-1.3,3.1-2.7,4.6-4C8,6.3,8.1,6.2,8.1,6C8.1,5.5,8,5,8,4.5c0-0.4,0-0.9,0.1-1.3c0.1-0.6,0.5-1.1,1-1.4
	c0.5-0.3,1-0.6,1.6-0.6c0.1,0,0.3,0,0.4,0C10.8,1.6,10.3,2,9.9,2.5C9.8,2.7,9.8,3,9.7,3.2C9.6,3.7,9.5,4.1,9.5,4.6
	c0,0.2,0.2,0.4,0.4,0.5c0.4,0.5,0.9,0.9,1.4,1.3c0.2,0.1,0.5,0,0.7,0c0.5-0.1,1-0.2,1.5-0.3c0.3-0.2,0.5-0.4,0.8-0.7
	c0.2-0.2,0.5-0.5,0.7-0.7c0,0.9-0.4,1.8-1,2.4c0,0,0,0,0,0c0.3,0.2,0.6,0.4,0.9,0.7c0.7-0.7,1.1-1.6,1.2-2.5c0-0.4,0-0.9,0-1.3
	c-0.1-0.4-0.4-0.7-0.8-0.7c-0.2,0-0.5,0-0.6,0.2c-0.6,0.5-1.1,1-1.6,1.6c-0.4,0.1-0.8,0.2-1.3,0.2c-0.4-0.3-0.7-0.7-1-1
	c0.1-0.4,0.2-0.9,0.3-1.3C11.4,2.5,12,2,12.5,1.4c0.2-0.2,0.2-0.6,0.1-0.9C12.4,0.2,12.1,0,11.7,0C11.5,0,11.4,0,11.2,0L11.2,0z
	 M11.5,7C9,7,7,9,7,11.5S9,16,11.5,16s4.5-2,4.5-4.5S14,7,11.5,7z M11.5,8c1.9,0,3.5,1.6,3.5,3.5S13.4,15,11.5,15S8,13.4,8,11.5
	S9.6,8,11.5,8z M9.9,9.2C9.8,9.3,9.6,9.5,9.5,9.6C9.4,9.8,8.9,10,9.2,10.2c0.5,0.5,0.9,1,1.4,1.4c-0.5,0.5-1,1-1.6,1.6
	c0.2,0.3,0.5,0.6,0.8,0.8c0.4-0.3,0.7-0.6,1-0.9c0.2-0.2,0.4-0.4,0.6-0.6c0.5,0.5,1,1,1.6,1.6c0.3-0.2,0.6-0.5,0.8-0.8
	c-0.3-0.4-0.6-0.7-0.9-1l-0.6-0.6c0.5-0.5,1-1,1.5-1.5c-0.2-0.3-0.5-0.6-0.8-0.8c-0.4,0.3-0.7,0.7-1,1l-0.6,0.6
	C11,10.3,10.4,9.7,9.9,9.2L9.9,9.2z M3,12.5c-0.2,0-0.3,0.1-0.4,0.3c-0.1,0.2-0.1,0.5,0.1,0.6c0.2,0.2,0.5,0.3,0.7,0.1
	c0.2-0.1,0.3-0.3,0.3-0.6c0-0.2-0.2-0.4-0.4-0.4C3,12.5,3,12.5,3,12.5L3,12.5z"/>
</svg>
