<?xml version="1.0" encoding="UTF-8"?>
<svg id="Layer_1" data-name="Layer 1" xmlns="http://www.w3.org/2000/svg" viewBox="0 0 16 16">
  <path d="m12,13h1.2423c-1.5181,1.289-3.3575,2-5.2423,2s-3.7242-.711-5.2423-2h1.2423v-1H1v3h1v-1.3364c1.719,1.5044,3.8297,2.3364,6,2.3364s4.281-.832,6-2.3364v1.3364h1v-3h-3v1Z" class="aw-theme-iconOutline" fill="#464646"/>
  <path d="m7,.3071L.0811,11h6.9189V.3071Zm-1,9.6929H1.9189L6,3.6934v6.3066Z" class="aw-theme-iconOutline" fill="#464646"/>
  <polygon points="14.5 11 15.9194 11 15 9.6606 14.5 10 14.5 11" class="aw-theme-iconOutline" fill="#464646"/>
  <rect x="10.8999" y="10" width=".9004" height="1" class="aw-theme-iconOutline" fill="#464646"/>
  <rect x="12.7002" y="10" width=".8999" height="1" class="aw-theme-iconOutline" fill="#464646"/>
  <rect x="9" y="10" width="1" height="1" class="aw-theme-iconOutline" fill="#464646"/>
  <polygon points="10 3.6934 10.4531 4.3936 11.293 3.8506 10.7422 2.9995 9.9023 3.5425 9.921 3.5713 9 3.5713 9 4.6431 10 4.6431 10 3.6934" class="aw-theme-iconOutline" fill="#464646"/>
  <rect x="9" y="7.8574" width="1" height="1.0713" class="aw-theme-iconOutline" fill="#464646"/>
  <rect x="9" y="5.7144" width="1" height="1.0713" class="aw-theme-iconOutline" fill="#464646"/>
  <polygon points="9.6467 2.5 10.1914 2.1484 9 .3057 9 2.5 9.6467 2.5" class="aw-theme-iconOutline" fill="#464646"/>
  <rect x="13.4023" y="8.2966" width="1.0001" height="1.0137" transform="translate(-2.5522 8.9585) rotate(-32.8831)" class="aw-theme-iconOutline" fill="#464646"/>
  <rect x="11.1992" y="4.8918" width="1.0001" height="1.0142" transform="translate(-1.0568 7.2168) rotate(-32.8831)" class="aw-theme-iconOutline" fill="#464646"/>
  <rect x="12.3007" y="6.5944" width="1.0001" height="1.0137" transform="translate(-1.8046 8.0877) rotate(-32.8831)" class="aw-theme-iconOutline" fill="#464646"/>
</svg>