<?xml version="1.0" encoding="UTF-8"?>
<svg id="Layer_1" xmlns="http://www.w3.org/2000/svg" viewBox="0 0 16 16">
<path d="m0,7.01h7.01V0H0v7.01ZM1,1h5.01v5.01H1V1Z" class="aw-theme-iconOutline" fill="#464646"/>
<polygon points="4.015 3.308 2.724 2.017 2.017 2.724 3.308 4.015 2.011 4.013 2.009 5.013 5.015 5.017 5.015 2.014 4.015 2.014 4.015 3.308" class="aw-theme-iconOutline" fill="#464646"/>
<path d="m9,0v7.01h7.01V0h-7.01Zm6.01,6.01h-5.01V1h5.01v5.01Z" class="aw-theme-iconOutline" fill="#464646"/>
<polygon points="14.012 4.018 12.731 4.018 14.024 2.724 13.317 2.017 12.016 3.318 12.016 2.01 11.016 2.01 11.016 5.018 14.012 5.018 14.012 4.018" class="aw-theme-iconOutline" fill="#464646"/>
<path d="m0,16.01h7.01v-7.01H0v7.01Zm1-6.01h5.01v5.01H1v-5.01Z" class="aw-theme-iconOutline" fill="#464646"/>
<polygon points="2.011 11.998 3.308 11.996 2.017 13.287 2.724 13.994 4.015 12.703 4.015 13.997 5.015 13.997 5.015 10.994 2.009 10.998 2.011 11.998" class="aw-theme-iconOutline" fill="#464646"/>
<path d="m9,16.01h7.01v-7.01h-7.01v7.01Zm1-6.01h5.01v5.01h-5.01v-5.01Z" class="aw-theme-iconOutline" fill="#464646"/>
<polygon points="14.012 11.992 14.012 10.992 11.016 10.992 11.016 14 12.016 14 12.016 12.692 13.317 13.994 14.024 13.287 12.73 11.992 14.012 11.992" class="aw-theme-iconOutline" fill="#464646"/>
</svg>