<?xml version="1.0" encoding="UTF-8"?>
<svg id="Layer_1" xmlns="http://www.w3.org/2000/svg" viewBox="0 0 16 16">
<path d="m14.825,7.172c-.781-.781-1.805-1.172-2.828-1.172s-2.047.391-2.828,1.172c-1.172,1.172-1.464,2.89-.878,4.334l-1.922,1.922c-.586.586-.586,1.536,0,2.121.293.293.677.439,1.061.439s.768-.146,1.061-.439l1.897-1.897c.513.226,1.06.348,1.61.348,1.024,0,2.047-.391,2.828-1.172,1.562-1.562,1.562-4.095,0-5.657Zm-7.043,7.671c-.127.127-.276.146-.354.146s-.226-.019-.354-.146c-.195-.195-.195-.512,0-.707l1.598-1.598.707.707-1.598,1.598Zm6.336-2.721c-.567.567-1.32.879-2.121.879s-1.555-.312-2.121-.879c-.567-.567-.879-1.32-.879-2.121s.312-1.555.879-2.121c.567-.567,1.32-.879,2.121-.879s1.555.312,2.121.879c.567.567.879,1.32.879,2.121s-.312,1.555-.879,2.121Z" class="aw-theme-iconOutline" fill="#464646"/>
<polygon points="5 1 3.008 1 3.008 0 4 0 5 0 5 1" class="aw-theme-iconOutline" fill="#464646"/>
<polygon points="5 11 3 11 3 10 4 10 5 10 5 11" class="aw-theme-iconOutline" fill="#464646"/>
<polygon points="7 11 6 11 6 10 6.48 10 7 10 7 11" class="aw-theme-iconOutline" fill="#464646"/>
<polygon points="8 1 6.008 1 6.008 0 7 0 8 0 8 1" class="aw-theme-iconOutline" fill="#464646"/>
<polygon points="1 10 1 9 0 9 0 11 .008 11 1 11 2 11 2 10 1 10" class="aw-theme-iconOutline" fill="#464646"/>
<polygon points="1 8 0 8 0 7 0 6 1 6 1 8" class="aw-theme-iconOutline" fill="#464646"/>
<polygon points="1 5 0 5 0 4 0 3 1 3 1 5" class="aw-theme-iconOutline" fill="#464646"/>
<polygon points="2 0 1 0 0 0 0 1 0 2 1 2 1 1 2 1 2 0" class="aw-theme-iconOutline" fill="#464646"/>
<polygon points="10 0 9 0 9 1 10 1 10 2 11 2 11 1 11 0 10 0" class="aw-theme-iconOutline" fill="#464646"/>
<polygon points="11 5 10 5 10 3.958 10 3 11 3 11 5" class="aw-theme-iconOutline" fill="#464646"/>
</svg>