<?xml version="1.0" encoding="UTF-8"?>
<svg id="Layer_1" xmlns="http://www.w3.org/2000/svg" viewBox="0 0 16 16">
<path d="m0,4h4V0H0v4ZM1,1h2v2H1V1Z" class="aw-theme-iconOutline" fill="#464646" stroke-width="0"/>
<path d="m0,10h4v-4H0v4Zm1-3h2v2H1v-2Z" class="aw-theme-iconOutline" fill="#464646" stroke-width="0"/>
<path d="m0,16h4v-4H0v4Zm1-3h2v2H1v-2Z" class="aw-theme-iconOutline" fill="#464646" stroke-width="0"/>
<polygon points="7 7.707 12.588 13.295 13.295 12.588 7.707 7 11 7 11 6 6 6 6 11 7 11 7 7.707" class="aw-theme-iconOutline" fill="#464646" stroke-width="0"/>
<polygon points="13 6 13 7 15 7 15 15 7 15 7 13 6 13 6 16 16 16 16 6 13 6" class="aw-theme-iconOutline" fill="#464646" stroke-width="0"/>
</svg>