<?xml version="1.0" encoding="UTF-8"?>
<svg id="Layer_1" xmlns="http://www.w3.org/2000/svg" viewBox="0 0 16 16">
<path d="m0,4h4V0H0v4ZM1,1h2v2H1V1Z" class="aw-theme-iconOutline" fill="#464646" stroke-width="0"/>
<path d="m0,10h4v-4H0v4Zm1-3h2v2H1v-2Z" class="aw-theme-iconOutline" fill="#464646" stroke-width="0"/>
<path d="m0,16h4v-4H0v4Zm1-3h2v2H1v-2Z" class="aw-theme-iconOutline" fill="#464646" stroke-width="0"/>
<polygon points="6 6 6 16 8.972 16 8.972 15 7 15 7 7 15 7 15 9 16 9 16 6 6 6" class="aw-theme-iconOutline" fill="#464646" stroke-width="0"/>
<polygon points="15 14.293 9.396 8.688 8.688 9.396 14.293 15 11.026 15 11.026 16 16 16 16 10.957 15 10.957 15 14.293" class="aw-theme-iconOutline" fill="#464646" stroke-width="0"/>
</svg>