<?xml version="1.0" encoding="UTF-8"?>
<svg id="Layer_1" xmlns="http://www.w3.org/2000/svg" viewBox="0 0 16 16">
<path d="m9.011,8.052c.31-.235.639-.444,1-.603v-1.371l1.989-1.182v.683h1v-1.861L6.528.027-.003,3.727v7.475l7.007,4.125v-7.461l2.007-1.193v1.379ZM6.526,1.178l1.937,1.104-1.854,1.095-1.878-1.182,1.796-1.017Zm-3.529,10.628l-2-1.177v-2.304l2,1.185v2.296Zm0-3.458l-2-1.186v-2.269l2,1.186v2.269Zm-1.501-4.321l2.246-1.272,1.898,1.194-2.142,1.264-2.001-1.186Zm4.508,9.549l-2.007-1.181v-2.292l2.007,1.189v2.284Zm0-3.446l-2.007-1.19v-2.269l2.007,1.19v2.269Zm.504-3.133l-2.028-1.202,2.112-1.247,1.961,1.234-2.045,1.216Zm1.053-3.021l1.903-1.123,2.05,1.169-1.995,1.186-1.957-1.232Z" class="aw-theme-iconOutline" fill="#464646"/>
<path d="m15,12c0,1.654-1.346,3-3,3s-3-1.346-3-3,1.346-3,3-3h1.069l-1.134,1.134.707.707,2.338-2.338-2.344-2.343-.707.707,1.134,1.133h-1.063c-2.206,0-4,1.794-4,4s1.794,4,4,4,4-1.794,4-4h-1Z" class="aw-theme-iconOutline" fill="#464646"/>
</svg>