<?xml version="1.0" encoding="UTF-8"?><svg id="Layer_1" xmlns="http://www.w3.org/2000/svg" viewBox="0 0 32 32"><rect width="32" height="32" fill="#7fb0aa"/><path d="m6.008,23.681v-13.347c.484.41,1.092.666,1.763.666h12.229v5h1v-5.237c.008-.013.024-.019.031-.033.086-.166.073-.365-.035-.518-1.723-2.45-.108-4.3-.041-4.375.134-.146.169-.358.089-.539-.08-.182-.259-.299-.458-.299H7.738c-1.51,0-2.786,1.397-2.786,3.051,0,.201.02.396.057.586v15.044c0,1.816,1.421,3.294,3.167,3.294h4.845v-1h-4.845c-1.195,0-2.167-1.029-2.167-2.294Zm1.729-17.681h11.941c-.424.856-.815,2.3.028,4H7.771c-.875,0-1.819-.745-1.819-1.949,0-1.111.818-2.051,1.786-2.051Z" fill="#fff"/><path d="m26.741,16.139l-2.104-1.902c-.289-.273-.742-.275-1.042.011l-8.354,8.429c-.061.061-.104.136-.127.219l-.904,3.274c-.049.176.003.365.135.492.094.092.22.141.347.141.05,0,.101-.008.15-.022l3.373-1.06c.077-.023.147-.066.205-.124l8.354-8.408s.004-.004.005-.006c.138-.143.211-.337.203-.533s-.099-.384-.242-.51Zm-8.221,7.938l-1.651-1.622,5.221-5.268,1.728,1.558-5.298,5.333Zm-3.101,1.473l.625-2.264.121-.122,1.65,1.622-.017.017-2.379.747Zm9.104-7.516l-1.729-1.559,1.336-1.348,1.728,1.562-1.335,1.344Z" fill="#fff"/><path d="m17.203,16.881c0-2.27-1.846-4.115-4.116-4.115s-4.115,1.846-4.115,4.115,1.846,4.115,4.115,4.115,4.116-1.846,4.116-4.115Zm-4.116,3.115c-1.718,0-3.115-1.397-3.115-3.115s1.397-3.115,3.115-3.115,3.116,1.397,3.116,3.115-1.397,3.115-3.116,3.115Z" fill="#fff"/><polygon points="13.626 16.274 12.549 16.274 12.549 18.583 12.118 18.583 12.118 19.119 14.056 19.119 14.056 18.583 13.626 18.583 13.626 16.274" fill="#fff"/><ellipse cx="13.087" cy="15.281" rx=".628" ry=".638" fill="#fff"/><rect x="5" y="5" width="22" height="22" fill="#fff" opacity="0"/></svg>