<?xml version="1.0" encoding="UTF-8"?><svg id="Layer_1" xmlns="http://www.w3.org/2000/svg" viewBox="0 0 24 24"><rect width="24" height="24" fill="#949da8"/><rect x="4" y="4" width="16" height="16" transform="translate(0 24) rotate(-90)" fill="#fff" opacity="0"/><polygon points="15.999 14.961 15.999 12.961 14.999 12.961 14.999 14.961 12.999 14.961 12.999 15.961 14.999 15.961 14.999 17.961 15.999 17.961 15.999 15.961 17.999 15.961 17.999 14.961 15.999 14.961" fill="#fff"/><path d="m17.005,11.218v-3.274c0-.18-.097-.346-.252-.435l-5.973-3.406c-.153-.088-.341-.088-.494,0l-6.03,3.416c-.157.088-.254.255-.254.435v6.897c0,.177.094.341.246.431l6.007,3.535c.078.046.166.069.254.069s.176-.023.254-.069l1.131-.668c.824,1.093,2.121,1.812,3.593,1.812,2.487,0,4.512-2.024,4.512-4.513,0-1.953-1.254-3.604-2.993-4.231Zm-1.519-.282c-.523,0-1.019.107-1.486.272v-1.185l2.005-1.191v2.157c-.172-.02-.341-.052-.519-.052Zm-10.484-2.108l2,1.186v2.27l-2-1.186v-2.27Zm8.629.251l-1.973-1.193,1.813-1.097,2.048,1.168-1.888,1.122Zm-.975.58l-2.144,1.274-1.966-1.165,2.145-1.297,1.965,1.188Zm-5.086-.47l-2.07-1.227,2.247-1.273,1.978,1.196-2.155,1.303Zm.432,1.418l1.996,1.183v2.27l-1.996-1.183v-2.27Zm1.996,4.614v2.284l-1.996-1.175v-2.293l1.996,1.183Zm1.26-1.301l-.26.155v-2.268l2.002-1.19v1.072c-.8.531-1.409,1.314-1.741,2.231Zm-.727-8.807l1.946,1.109-1.785,1.08-1.947-1.177,1.786-1.012Zm-5.529,7.147l2,1.185v2.297l-2-1.177v-2.305Zm5.996,5.257v-1.827c.031.568.157,1.109.379,1.603l-.379.224Zm4.488,1.444c-1.937,0-3.513-1.576-3.513-3.513s1.576-3.513,3.513-3.513,3.512,1.576,3.512,3.513-1.575,3.513-3.512,3.513Z" fill="#fff"/></svg>