<?xml version="1.0" encoding="UTF-8"?><svg id="Layer_1" xmlns="http://www.w3.org/2000/svg" viewBox="0 0 32 32"><rect width="32" height="32" fill="#e3be4c"/><rect x="5" y="5" width="22" height="22" fill="#fff" opacity="0"/><path d="m27.009,14.847c0-.033-.021-.061-.028-.093-.012-.053-.019-.107-.046-.152-.018-.03-.049-.048-.073-.073-.033-.035-.059-.077-.102-.102-.004-.002-.009-.001-.013-.004-.004-.002-.006-.007-.01-.009l-3.715-1.896-.026-4.616s0,0,0,0,0,0,0,0c0-.006-.004-.011-.005-.016-.004-.084-.025-.164-.067-.234-.014-.024-.04-.038-.059-.059-.035-.042-.066-.088-.115-.117-.004-.003-.01-.002-.014-.004-.004-.002-.005-.007-.009-.009l-4.5-2.354c-.144-.075-.315-.076-.461,0l-4.483,2.318s-.006.007-.01.01-.01.001-.014.004c-.043.026-.07.068-.103.104-.023.025-.053.043-.071.072-.032.054-.042.116-.052.179-.004.024-.02.044-.02.069,0,.001,0,.002,0,.003s0,.002,0,.003v6.847l-.375.636,1.755,1.036.508-.861-.888-.524v-1.71l3.491,1.931-.037,3.244-.444-.252v-1.143s0-.002,0-.003,0-.002,0-.003c0-.177-.094-.341-.246-.431l-1.291-.763-.508.861.562.332-.562.332.003.006-.003.002.51.861.535-.317v.623h.496l-.218.383.375.213h-.653v1.789h1v-1.592l5.206,2.958c.012.008.017.022.029.029.075.042.159.062.242.062.092,0,.184-.025.265-.076l4.009-2.505c.146-.091.235-.251.235-.424v-4.551s-.002-.004-.002-.006c0-.002.002-.004.002-.007Zm-5.145-2.265l-3.359,1.566-.008-3.503,3.504-1.901.021,3.765-.158.074Zm.619,4.011l-2.583-1.281-.739-.367,3.354-1.563,2.945,1.503-2.976,1.708Zm-4.488-10.478l3.438,1.799-3.435,1.864-3.425-1.894,3.422-1.77Zm-3.982,2.603l3.484,1.926.008,3.439-3.492-1.932v-3.434Zm4.485,7.016l3.502,1.737v3.574l-3.54-2.011.038-3.3Zm4.502,5.28v-3.563l2.873-1.649.136-.078v3.41l-3.009,1.88Z" fill="#fff"/><path d="m11.515,25.439v-.623h-1v.623l-.535-.317-.51.861,1.29.764s.003,0,.004.001c.001,0,.002.002.003.003.077.044.163.065.248.065s.171-.021.248-.065c.001,0,.002-.002.003-.003.001,0,.003,0,.004-.001l1.291-.764-.51-.861-.536.317Z" fill="#fff"/><rect x="12.748" y="24.185" width="2.042" height="1.001" transform="translate(-10.653 10.455) rotate(-30.619)" fill="#fff"/><path d="m16.022,22.77l-1.045.618.51.861,1.29-.764c.152-.091.245-.254.245-.431v-1.5h-1v1.215Z" fill="#fff"/><polygon points="13.146 19.654 14.901 18.614 14.897 18.607 14.9 18.605 14.393 17.744 12.638 18.78 12.643 18.789 12.636 18.793 13.146 19.654" fill="#fff"/><rect x="10.515" y="22.432" width="1" height="1.789" fill="#fff"/><rect x="7.76" y="23.664" width="1.001" height="2.042" transform="translate(-17.19 19.218) rotate(-59.375)" fill="#fff"/><path d="m6.007,21.555h-1v1.5c0,.177.093.34.245.431l1.29.764.51-.861-1.045-.618v-1.215Z" fill="#fff"/><rect x="5.007" y="19.169" width="1" height="1.789" fill="#fff"/><path d="m6.545,15.873l-1.292.763c-.152.09-.246.254-.246.431,0,.001,0,.002,0,.003s0,.002,0,.003v1.5h1v-.623l.535.317.51-.861-.003-.002.004-.006-.562-.332.562-.332-.508-.861Z" fill="#fff"/><rect x="7.241" y="14.94" width="2.038" height="1" transform="translate(-6.697 6.335) rotate(-30.522)" fill="#fff"/><path d="m10.761,13.383l-1.292.763.508.861,1.038-.612,1.038.612.508-.861-1.292-.763c-.156-.092-.352-.092-.508,0Z" fill="#fff"/><polygon points="12.053 19.126 11.015 19.738 9.977 19.126 9.469 19.987 9.476 19.992 9.47 20.002 10.515 20.62 10.515 21.835 11.515 21.835 11.515 20.62 12.561 20.002 12.554 19.991 12.561 19.987 12.053 19.126" fill="#fff"/><polygon points="9.393 18.78 7.638 17.744 7.13 18.605 7.132 18.607 7.128 18.614 8.884 19.654 9.394 18.793 9.387 18.789 9.393 18.78" fill="#fff"/></svg>