<?xml version="1.0" encoding="UTF-8"?><svg id="Layer_1" xmlns="http://www.w3.org/2000/svg" viewBox="0 0 32 32"><rect width="32" height="32" fill="#b27795"/><rect x="5" y="5" width="22" height="22" fill="#fff" opacity="0"/><path d="m26.995,19.114c0-.179-.096-.344-.25-.433l-4.5-2.601c-.076-.044-.16-.065-.245-.066v-1.896l-7.005,2.474v-3.062l-6,2.43v-3.96h-3.995v13h13.393l3.301,1.909c.015.011.022.028.038.038.077.045.164.067.25.067.005,0,.009-.004.014-.004.005,0,.009.004.014.004.086,0,.173-.022.25-.067.016-.009.023-.027.038-.038l4.449-2.573c.155-.089.25-.254.25-.433v-4.783s0-.002,0-.003,0-.002,0-.003Zm-9,.872l3.486,2.015v3.629l-3.486-2.015v-3.629Zm7.501-.872l-3.501,2.024-3.501-2.024,3.501-2.023,3.501,2.023ZM6,13h1.995v4.444l6-2.43v2.992l7.005-2.474v.978l-3.755,2.17c-.154.089-.25.254-.25.433,0,.001,0,.002,0,.003s0,.002,0,.003v4.783c0,.035.019.064.026.097H6v-11Zm19.995,10.615l-3.486,2.015v-3.629l3.486-2.015v3.629Z" fill="#fff"/><path d="m7.89,11.567l.072-.415c.094-.547.396-1.132.85-1.233.38.266.906.523,1.57.543.766-.011,1.3-.142,1.925-.794.161-.163.399-.252.596-.237.118.008.286.051.419.225.352.438.947.748,1.555.809.589.052,1.134-.111,1.582-.487.456-.385.533-.341.967-.101.131.073.271.152.434.225.528.237,1.238.159,1.806-.193.621-.388.993-1.049,1.02-1.833-.005-.686-.281-1.28-.779-1.676-.508-.404-1.211-.569-1.838-.425-.271.062-.492.153-.691.237-.402.172-.485.206-.855-.107-.957-.825-2.099-.596-2.842-.113-.296.188-.886.258-1.174-.058-.522-.565-1.215-1.124-2.416-.974-.951.121-1.773.713-2.091,1.501-.195.466-.249.95-.257,1.303-1.076.754-1.781,2.29-1.759,3.315l.011.489h1.897Zm.595-3.092l.273-.15-.016-.312c-.021-.423.044-.849.18-1.173.184-.456.703-.813,1.292-.889.704-.09,1.107.175,1.554.659.635.692,1.765.656,2.45.222.277-.181.993-.536,1.652.032.843.712,1.427.468,1.896.268.151-.063.317-.137.521-.183.33-.075.722.016.995.231.264.21.398.513.401.879-.019.555-.309.85-.549.999-.332.207-.682.213-.866.13-.132-.06-.248-.125-.355-.185-.629-.353-1.182-.561-2.098.206-.241.202-.517.296-.841.258-.392-.038-.721-.248-.866-.428-.275-.361-.681-.577-1.14-.607-.504-.04-1.003.16-1.378.537-.397.415-.643.484-1.224.492h-.018c-.433,0-.812-.244-1.097-.458l-.134-.101h-.167c-.855,0-1.575.653-1.879,1.664h-.033c.18-.763.75-1.711,1.444-2.092Z" fill="#fff"/></svg>