<?xml version="1.0" encoding="UTF-8"?><svg id="Layer_1" xmlns="http://www.w3.org/2000/svg" viewBox="0 0 32 32"><rect width="32" height="32" fill="#689762"/><rect x="5" y="5" width="22" height="22" fill="#fff" opacity="0"/><path d="m27.004,21.32c0-.175-.091-.337-.24-.428l-2.764-1.678v-2.715c0-.276-.224-.5-.5-.5h-6.941v-2.225l3.217-1.912c.151-.09.244-.253.244-.43v-3.827s0-.002,0-.002,0-.002,0-.002c0-.177-.093-.34-.244-.43l-3.5-2.081c-.158-.094-.354-.094-.512,0l-3.5,2.081c-.151.09-.244.253-.244.43,0,0,0,.002,0,.002s0,.002,0,.002v3.827c0,.177.093.34.244.43l3.295,1.959v2.178h-7.059c-.276,0-.5.224-.5.5v2.721l-2.753,1.671c-.149.091-.24.253-.24.428,0,0,0,.001,0,.002,0,0,0,.001,0,.002v3.349c0,.175.091.337.24.428l2.979,1.807c.011.007.016.02.027.027.076.043.16.064.245.064.003,0,.006-.003.009-.003.003,0,.006.003.009.003.085,0,.169-.021.245-.064.011-.006.016-.019.027-.027l2.978-1.807c.149-.091.24-.253.24-.428v-3.349s0-.001,0-.002c0,0,0-.001,0-.002,0-.175-.091-.337-.24-.428l-2.767-1.68v-2.213h14v2.219l-2.756,1.673c-.149.091-.24.253-.24.428,0,0,0,.001,0,.002,0,0,0,.001,0,.002v3.349c0,.175.091.337.24.428l2.979,1.807c.011.007.016.02.027.027.076.043.16.064.245.064.003,0,.006-.003.009-.003.003,0,.006.003.009.003.085,0,.169-.021.245-.064.011-.006.016-.019.027-.027l2.978-1.807c.149-.091.24-.253.24-.428v-3.349s0-.001,0-.002c0,0,0-.001,0-.002Zm-7.984-10.171l-2.489,1.479v-2.664l2.489-1.479v2.664Zm-3-5.047l2.521,1.499-2.521,1.5-2.521-1.5,2.521-1.499Zm-3,2.383l2.489,1.479v2.664l-2.489-1.479v-2.664Zm-7.013,13.728l1.991,1.208v2.179l-1.991-1.208v-2.179Zm5,2.179l-1.99,1.208v-2.179l1.99-1.208v2.179Zm-2.5-1.835l-2.036-1.236,2.036-1.236,2.036,1.236-2.036,1.236Zm14.997-2.473l2.036,1.236-2.036,1.236-2.036-1.236,2.036-1.236Zm-2.5,2.129l1.991,1.208v2.179l-1.991-1.208v-2.179Zm5,2.179l-1.99,1.208v-2.179l1.99-1.208v2.179Z" fill="#fff"/></svg>