<?xml version="1.0" encoding="UTF-8"?><svg id="Layer_1" xmlns="http://www.w3.org/2000/svg" viewBox="0 0 32 32"><rect width="32" height="32" fill="#149ac7"/><rect x="5" y="5" width="22" height="22" fill="#fff" opacity="0"/><path d="m21,8v-2.518c0-.276-.224-.5-.5-.5s-.5.224-.5.5v2.518h-3.5v-2.518c0-.276-.224-.5-.5-.5s-.5.224-.5.5v2.518h-3.5v-2.518c0-.276-.224-.5-.5-.5s-.5.224-.5.5v2.518h-3v18h16V8h-3Zm2,17h-14V9h2v.482c0,.276.224.5.5.5s.5-.224.5-.5v-.482h3.5v.482c0,.276.224.5.5.5s.5-.224.5-.5v-.482h3.5v.482c0,.276.224.5.5.5s.5-.224.5-.5v-.482h2v16Z" fill="#fff"/><rect x="11" y="15" width="5" height="1" fill="#fff"/><rect x="11" y="20" width="5" height="1" fill="#fff"/><polygon points="18.735 15.788 17.69 14.582 16.935 15.236 18.743 17.323 21.827 13.697 21.065 13.049 18.735 15.788" fill="#fff"/><polygon points="18.735 20.947 17.69 19.741 16.935 20.396 18.743 22.482 21.827 18.855 21.065 18.207 18.735 20.947" fill="#fff"/></svg>