<?xml version="1.0" encoding="UTF-8"?><svg id="Layer_1" xmlns="http://www.w3.org/2000/svg" viewBox="0 0 32 32"><rect width="32" height="32" fill="#949da8"/><rect x="5" y="5" width="22" height="22" fill="#fff" opacity="0"/><polygon points="22.15 18.372 20.903 18.372 20.903 20.866 18.409 20.866 18.409 22.113 20.903 22.113 20.903 24.606 22.15 24.606 22.15 22.113 24.643 22.113 24.643 20.866 22.15 20.866 22.15 18.372" fill="#fff"/><path d="m21.98,15.995v-5.703c0-.18-.096-.345-.252-.434l-7.952-4.548c-.153-.088-.342-.089-.495,0l-8.028,4.562c-.156.089-.253.255-.253.435v9.212c0,.177.094.341.246.431l7.997,4.722c.078.046.166.069.254.069.081,0,.162-.02.235-.06l2.591-1.386c.754,2.141,2.791,3.683,5.187,3.683,3.034,0,5.503-2.469,5.503-5.503,0-2.876-2.219-5.239-5.033-5.479Zm-15.98-4.813l2.995,1.781v3.528l-2.995-1.781v-3.529Zm11.653.823l-2.948-1.788,2.735-1.659,3.059,1.75-2.846,1.697Zm-.972.58l-3.178,1.895-2.942-1.749,3.18-1.929,2.94,1.783Zm-7.094-.433l-3.089-1.837,3.325-1.89,2.953,1.791-3.189,1.935Zm.408,1.406l2.988,1.777v3.528l-2.988-1.777v-3.528Zm2.988,6.47v3.329l-2.988-1.764v-3.342l2.988,1.777Zm1-4.67l2.996-1.786v3.594l-2.996,1.733v-3.541Zm3.996-2.383l3.001-1.789v3.665l-3.001,1.736v-3.612Zm-4.452-6.654l2.919,1.67-2.706,1.642-2.921-1.772,2.708-1.539Zm-7.527,9.554l2.995,1.781v3.346l-2.995-1.768v-3.359Zm7.983,7.539v-3.36l2.996-1.734v.039c-.612.887-.972,1.959-.972,3.115,0,.279.028.552.068.82l-2.092,1.119Zm7.527,2.564c-2.483,0-4.503-2.02-4.503-4.503s2.02-4.503,4.503-4.503,4.503,2.02,4.503,4.503-2.02,4.503-4.503,4.503Z" fill="#fff"/></svg>