<?xml version="1.0" encoding="UTF-8"?><svg id="Layer_1" xmlns="http://www.w3.org/2000/svg" viewBox="0 0 32 32"><rect width="32" height="32" fill="#83ac80"/><rect x="5" y="5" width="22" height="22" fill="#fff" opacity="0"/><path d="m24.987,10.827c0-.189-.107-.363-.277-.447l-8.423-4.198c-.141-.07-.306-.07-.446,0l-8.423,4.198c-.169.084-.277.258-.277.447s.107.363.277.447l8.423,4.198c.07.035.147.053.223.053s.153-.018.223-.053l8.423-4.198c.169-.084.277-.258.277-.447Zm-8.923,3.64l-7.302-3.64,7.302-3.64,7.302,3.64-7.302,3.64Z" fill="#fff"/><path d="m15.564,8.782v2.721l-.842-.842-.707.707,1.695,1.695c.098.098.226.146.354.146s.256-.049.354-.146l1.696-1.695-.707-.707-.842.842v-2.721h-1Z" fill="#fff"/><path d="m27.528,23.276c-.006-.025-.359-1.435-1.785-2.618l.532-7.653c.013-.186-.078-.362-.236-.46-.158-.099-.357-.101-.517-.006l-7.912,4.657c-.143.083-.234.231-.246.396l-.54,7.879c-.012.183.076.358.231.457.082.051.174.077.268.077.084,0,.168-.021.244-.063l7.772-4.344c.949.881,1.194,1.826,1.213,1.904l.974-.227Zm-9.183-5.352l6.866-4.042-.426,6.132c-.965-.534-2.25-.924-3.966-.948l1.02-.867-.647-.762-1.879,1.599c-.21.179-.236.494-.057.705l1.599,1.88.762-.648-.775-.912c1.609.023,2.776.395,3.617.886l-6.57,3.673.458-6.695Z" fill="#fff"/><path d="m14.487,17.197l-7.912-4.657c-.16-.095-.359-.093-.517.006-.158.098-.249.274-.236.46l.527,7.571c-1.508,1.198-1.875,2.673-1.881,2.7l.975.225c.005-.02.252-1.016,1.261-1.932l7.825,4.374c.076.042.16.063.244.063.093,0,.186-.026.268-.077.155-.099.244-.274.231-.457l-.54-7.879c-.011-.165-.103-.313-.246-.396Zm-6.887,3.727c.838-.479,1.984-.841,3.557-.863l-.776.912.762.648,1.599-1.88c.179-.211.153-.526-.057-.705l-1.879-1.599-.647.762,1.019.867c-1.658.023-2.914.387-3.867.893l-.423-6.076,6.866,4.041.458,6.695-6.611-3.696Z" fill="#fff"/></svg>