<?xml version="1.0" encoding="UTF-8"?><svg id="Layer_1" xmlns="http://www.w3.org/2000/svg" viewBox="0 0 32 32"><rect width="32" height="32" fill="#e27d80"/><rect x="5" y="5" width="22" height="22" fill="#fff" opacity="0"/><path d="m10.997,16.003c-2.222.097-3.962,2.072-3.962,4.497s1.74,4.4,3.979,4.497l15.983.003v-1h-15.683l-.274-.003c-1.685-.072-3.005-1.609-3.005-3.497s1.32-3.425,2.989-3.497l15.973-.003v-1h-15.692l-.307.003Z" fill="#fff"/><path d="m10.765,25.98c-1.253-.035-2.307-.435-3.133-1.259-1.024-1.022-1.611-2.571-1.611-4.25,0-1.652.58-3.179,1.591-4.189.827-.826,1.916-1.263,3.152-1.263h.006l16.202-.004v-1h-15.773l-.433.004h-.007c-1.502,0-2.834.538-3.854,1.556-1.197,1.196-1.884,2.98-1.884,4.896,0,1.941.694,3.749,1.905,4.958,1.016,1.015,2.341,1.551,3.828,1.551h.007l16.235.004v-1h-15.789l-.443-.004Z" fill="#fff"/><path d="m9.93,20.528c0,.879.715,1.595,1.594,1.595s1.594-.716,1.594-1.595-.715-1.595-1.594-1.595-1.594.716-1.594,1.595Zm2.188,0c0,.328-.267.595-.594.595s-.594-.267-.594-.595.267-.595.594-.595.594.267.594.595Z" fill="#fff"/><path d="m13.941,20.528c0,.879.715,1.595,1.594,1.595s1.594-.716,1.594-1.595-.715-1.595-1.594-1.595-1.594.716-1.594,1.595Zm2.188,0c0,.328-.267.595-.594.595s-.594-.267-.594-.595.267-.595.594-.595.594.267.594.595Z" fill="#fff"/><path d="m17.952,20.528c0,.879.715,1.595,1.595,1.595s1.594-.716,1.594-1.595-.715-1.595-1.594-1.595-1.595.716-1.595,1.595Zm2.189,0c0,.328-.267.595-.594.595s-.595-.267-.595-.595.267-.595.595-.595.594.267.594.595Z" fill="#fff"/><path d="m21.963,20.528c0,.879.715,1.595,1.594,1.595s1.595-.716,1.595-1.595-.715-1.595-1.595-1.595-1.594.716-1.594,1.595Zm2.189,0c0,.328-.267.595-.595.595s-.594-.267-.594-.595.267-.595.594-.595.595.267.595.595Z" fill="#fff"/><path d="m18,6h-7v6h7v-6Zm-1,5h-5v-4h5v4Z" fill="#fff"/><path d="m20,6v6h7v-6h-7Zm6,5h-5v-4h5v4Z" fill="#fff"/></svg>