<?xml version="1.0" encoding="UTF-8"?><svg id="Layer_1" xmlns="http://www.w3.org/2000/svg" viewBox="0 0 48 48"><rect width="48" height="48" fill="#949da8"/><rect x="9" y="9" width="30" height="30" transform="translate(0 48) rotate(-90)" fill="#fff" opacity="0"/><polygon points="32.006 27.975 31.006 27.975 31.006 31 28 31 28 32 31.006 32 31.006 34.975 32.006 34.975 32.006 32 35 32 35 31 32.006 31 32.006 27.975" fill="#fff"/><path d="m33,24.115v-8.126c0-.183-.1-.351-.259-.438l-11.631-6.394c-.152-.083-.337-.082-.487.003l-11.369,6.413c-.156.089-.254.255-.254.436v12.949c0,.179.096.344.25.434l11.51,6.638c.077.044.164.066.25.066.079,0,.157-.019.229-.056l3.333-1.725c1.124,2.725,3.807,4.649,6.934,4.649,4.136,0,7.5-3.364,7.5-7.5,0-3.624-2.584-6.655-6.006-7.35Zm-1.494-.15c-1.686,0-3.238.566-4.492,1.508v-5.85l4.986-2.964v7.331c-.164-.011-.327-.025-.494-.025Zm-21.506-7.133l4.68,2.774v5.323l-4.68-2.773v-5.324Zm16.758,1.78l-4.582-2.776,4.289-2.594,4.845,2.664-4.552,2.706Zm-.973.579l-4.916,2.923-4.582-2.716,4.924-2.978,4.574,2.771Zm-10.474-.372l-4.766-2.825,5.159-2.91,4.542,2.751-4.934,2.984Zm.369,1.38l4.689,2.78v5.322l-4.689-2.779v-5.323Zm4.689,9.264v5.186l-4.689-2.705v-5.261l4.689,2.779Zm1-6.485l4.645-2.761v5.462l-4.645,2.64v-5.341Zm-.497-12.81l4.581,2.518-4.242,2.565-4.508-2.731,4.169-2.352Zm-10.872,13.149l4.68,2.774v5.277l-4.68-2.699v-5.352Zm11.369,11.529v-5.377l3.962-2.252c-.834,1.209-1.325,2.671-1.325,4.247,0,.653.093,1.284.25,1.888l-2.887,1.494Zm10.137,3.118c-3.584,0-6.5-2.916-6.5-6.5s2.916-6.5,6.5-6.5,6.5,2.916,6.5,6.5-2.916,6.5-6.5,6.5Z" fill="#fff"/></svg>