<?xml version="1.0" encoding="UTF-8"?><svg id="Layer_1" xmlns="http://www.w3.org/2000/svg" viewBox="0 0 32 32"><rect width="32" height="32" fill="#9e587e"/><rect x="5" y="5" width="22" height="22" fill="#fff" opacity="0"/><path d="m26.993,12.326c-.076-.188-.26-.312-.464-.312h-3.634l3.495-4.173c.125-.149.152-.356.07-.533-.082-.176-.259-.288-.453-.288h-4.751c-.131,0-.257.052-.351.144l-4.899,4.824v-2.112c0-.089-.024-.175-.067-.249-.021-.037-.06-.061-.091-.092-.03-.031-.052-.069-.09-.091h-.002s0-.002,0-.002,0,0,0,0l-5.004-2.923c-.156-.093-.35-.093-.504,0l-4.996,2.925c-.057.033-.095.085-.134.135-.013.017-.035.028-.046.047-.043.075-.067.16-.067.25v10.725c0,.178.094.342.248.432l10.004,5.851s0,0,.001,0c.001,0,.001.002.003.003.077.044.162.065.248.065s.172-.022.249-.066c0,0,.001-.002.002-.002,0,0,.002,0,.003,0l4.993-2.947c.152-.09.246-.254.246-.431v-4.955l5.877-5.675c.146-.142.192-.357.116-.547Zm-9.935,7.221l-1.589.94-3.979-2.325,4.018-2.347,2.371,1.358-.821,2.374Zm-2.052,6.031l-4.008-2.344v-4.201l4.008,2.342v4.203ZM6.003,10.747l.826.483,3.17,1.856v4.203l-3.996-2.339v-4.203Zm12.209,5.464l-2.133-1.222h2.555l-.423,1.222Zm-4.385-2.079c-.145.143-.189.358-.112.546s.26.311.463.311h.759l-3.937,2.302v-4.204l4.008-2.341v2.225l-1.18,1.161Zm-3.328-6.604l4.016,2.346-4.016,2.346-2.435-1.425-1.572-.92,4.006-2.346Zm-4.496,8.58l3.996,2.339v4.201l-3.996-2.337v-4.203Zm13.997,7.108l-3.993,2.356v-4.242l.546-.323-.269.778c-.075.219.009.46.204.585.082.053.176.078.269.078.126,0,.251-.048.348-.141l2.896-2.796v3.704Zm-2.088-3.078l1.897-5.487c.053-.152.028-.321-.065-.453s-.245-.21-.407-.21h-3.938l6.063-5.97h3.475l-3.495,4.173c-.125.149-.152.356-.07.533.082.176.259.288.453.288h3.468l-7.38,7.126Z" fill="#fff"/></svg>