<?xml version="1.0" encoding="UTF-8"?>
<svg id="Layer_1" data-name="Layer 1" xmlns="http://www.w3.org/2000/svg" xmlns:xlink="http://www.w3.org/1999/xlink" viewBox="0 0 48 48">
  <defs>
    <linearGradient id="linear-gradient" x1="-3.1894" y1="4.1894" x2="9.432" y2="16.8107" gradientUnits="userSpaceOnUse">
      <stop offset="0" stop-color="#fff"/>
      <stop offset=".2477" stop-color="#f8f8f8"/>
      <stop offset=".6057" stop-color="#e4e4e4"/>
      <stop offset="1" stop-color="#c8c8c8"/>
    </linearGradient>
    <linearGradient id="linear-gradient-2" x1="38.568" y1="31.1894" x2="51.1894" y2="43.8107" xlink:href="#linear-gradient"/>
    <linearGradient id="Dark_Blue_Grad_4" data-name="Dark Blue Grad 4" x1="6.2765" y1="5.7228" x2="42.2758" y2="41.7221" gradientUnits="userSpaceOnUse">
      <stop offset="0" stop-color="#75b2c5"/>
      <stop offset=".1774" stop-color="#6cacbf"/>
      <stop offset=".4638" stop-color="#549cb1"/>
      <stop offset=".8215" stop-color="#2d829a"/>
      <stop offset="1" stop-color="#18748e"/>
    </linearGradient>
    <linearGradient id="New_Gradient_Swatch_7" data-name="New Gradient Swatch 7" x1="17.2499" y1="16.7499" x2="31.7501" y2="31.2501" gradientUnits="userSpaceOnUse">
      <stop offset="0" stop-color="#cce4e9"/>
      <stop offset=".2214" stop-color="#c5e0e6"/>
      <stop offset=".5419" stop-color="#b1d5de"/>
      <stop offset=".9212" stop-color="#92c5d1"/>
      <stop offset="1" stop-color="#8bc1cf"/>
    </linearGradient>
  </defs>
  <path d="m.5.5h4c1.6557,0,3,1.3443,3,3v14.0001c0,1.6557-1.3443,3-3,3H.5V.5h0Z" fill="url(#linear-gradient)" stroke="#464646" stroke-miterlimit="10"/>
  <path d="m43.5,27.5h4v20.0001h-4c-1.6557,0-3-1.3443-3-3v-14.0001c0-1.6557,1.3443-3,3-3Z" fill="url(#linear-gradient-2)" stroke="#464646" stroke-miterlimit="10"/>
  <path d="m40.5,31.4999h-10V8.5c0-2.2091-1.7908-3.9999-3.9998-4l-19.0002-.0007v12.0007h11v23.0007c0,2.2089,1.7912,3.9995,5.0005,3.9993l16.9995-.0021v-11.9979Z" fill="url(#Dark_Blue_Grad_4)" stroke="#464646" stroke-linejoin="round"/>
  <rect x="15.4999" y="18.5" width="18.0003" height="11" fill="url(#New_Gradient_Swatch_7)" stroke="#464646" stroke-linejoin="round"/>
</svg>