<?xml version="1.0" encoding="UTF-8"?>
<svg id="Layer_1" data-name="Layer 1" xmlns="http://www.w3.org/2000/svg" xmlns:xlink="http://www.w3.org/1999/xlink" viewBox="0 0 48 48">
  <defs>
    <linearGradient id="Dark_Blue_Grad" data-name="Dark Blue Grad" x1="3.5" y1="5.5" x2="44.5" y2="46.4999" gradientUnits="userSpaceOnUse">
      <stop offset="0" stop-color="#73b4c8"/>
      <stop offset=".1747" stop-color="#6aaec2"/>
      <stop offset=".4567" stop-color="#529db5"/>
      <stop offset=".8089" stop-color="#2b839e"/>
      <stop offset="1" stop-color="#147391"/>
    </linearGradient>
  </defs>
  <path d="m47.5,43.4999H.5V8.5l9.5.0003,1.5469-2.0628c.9594-1.2793,2.3847-2.1249,3.9691-2.3415,2.0305-.2775,5.0987-.5961,8.4847-.5961,3.4451,0,6.5607.3298,8.5891.6106,1.5197.2104,2.8948.9952,3.8531,2.1933l1.757,2.1964,9.3-.0003v35Z" fill="url(#Dark_Blue_Grad)" stroke="#464646" stroke-linejoin="round"/>
  <path d="m5.5,40.5001V13.5004h7l2.9922-3.9893c.0952-.1274.23-.2119.3799-.2388,1.6147-.2886,4.8184-.7725,8.1279-.7725s6.5132.4839,8.1284.7725c.1494.0269.2842.1113.3789.2383l2.9927,3.9897h8.9996v-2s-7.9997,0-7.9997,0l-2.392-3.1896c-.3976-.5302-.9756-.8903-1.6279-1.007-1.6287-.2912-4.9903-.8037-8.48-.8037s-6.8512.5124-8.4799.8037c-.6524.1167-1.2303.4768-1.6279,1.007l-2.392,3.1896H3.5001v28.9994l1.9999.0003Z" fill="#438fa7"/>
  <path d="m44.4997,40.4998H3.5001s-.0001-28.9999-.0001-28.9999l8.0001.0005,2.392-3.1896c.3976-.5302.9755-.8903,1.6279-1.007,1.6287-.2912,4.9902-.8037,8.4799-.8037s6.8513.5124,8.48.8037c.6524.1167,1.2303.4768,1.6279,1.007l2.392,3.1896,8.0001-.0005-.0003,28.9999Z" fill="none" stroke="#147391" stroke-linejoin="round"/>
  <rect x="9.5" y="17.4999" width="5" height="5" fill="#6e6e6e" stroke="#464646" stroke-miterlimit="10"/>
  <rect x="21.5" y="17.4999" width="5" height="5" fill="#6e6e6e" stroke="#464646" stroke-miterlimit="10"/>
  <rect x="33.5" y="17.4999" width="5" height="5" fill="#6e6e6e" stroke="#464646" stroke-miterlimit="10"/>
  <rect x="9.5" y="29.4999" width="5" height="5" fill="#6e6e6e" stroke="#464646" stroke-miterlimit="10"/>
  <rect x="21.5" y="29.4999" width="5" height="5" fill="#6e6e6e" stroke="#464646" stroke-miterlimit="10"/>
  <rect x="33.5" y="29.4999" width="5" height="5" fill="#6e6e6e" stroke="#464646" stroke-miterlimit="10"/>
</svg>