<?xml version="1.0" encoding="UTF-8"?><svg id="Layer_1" xmlns="http://www.w3.org/2000/svg" xmlns:xlink="http://www.w3.org/1999/xlink" viewBox="0 0 48 48"><defs><linearGradient id="linear-gradient" x1="-213.829" y1="-90.007" x2="-174.829" y2="-90.007" gradientTransform="translate(-173.329 -62) rotate(-180)" gradientUnits="userSpaceOnUse"><stop offset="0" stop-color="#bebebe"/><stop offset="1" stop-color="#fff"/></linearGradient><linearGradient id="linear-gradient-2" x1="-201.492" y1="-69.078" x2="-174.829" y2="-69.078" gradientTransform="translate(-173.329 -62) rotate(-180)" gradientUnits="userSpaceOnUse"><stop offset="0" stop-color="#bebebe"/><stop offset=".225" stop-color="#d6d6d6"/><stop offset=".504" stop-color="#ededed"/><stop offset=".768" stop-color="#fafafa"/><stop offset="1" stop-color="#fff"/></linearGradient><linearGradient id="linear-gradient-3" x1="28.406" y1="-93.469" x2="44.594" y2="-109.656" gradientTransform="translate(0 -62) scale(1 -1)" gradientUnits="userSpaceOnUse"><stop offset="0" stop-color="#fff"/><stop offset="1" stop-color="#bebebe"/></linearGradient><linearGradient id="linear-gradient-4" x1="42.625" y1="-97.625" x2="30.375" y2="-85.375" gradientTransform="translate(0 -62) scale(1 -1)" gradientUnits="userSpaceOnUse"><stop offset="0" stop-color="#147391"/><stop offset=".653" stop-color="#559fb6"/><stop offset="1" stop-color="#73b4c8"/></linearGradient></defs><polygon points="6.521 28.066 6.521 31.598 40.5 20.665 40.5 23.166 23.581 28.542 23.581 32.06 40.479 26.685 40.463 41.512 1.504 41.512 1.5 14.501 6.5 14.501 6.521 25.578 24.496 19.702 24.496 22.232 6.521 28.066" fill="url(#linear-gradient)" stroke="#464646" stroke-miterlimit="10"/><path d="m4.94,6.583c-.056-.896.087-1.793.418-2.628.627-1.279,1.874-2.141,3.293-2.274,1.471-.207,2.942.384,3.86,1.552.987.852,2.415.96,3.52.266,1.322-.941,3.108-.887,4.37.133,1.651,1.36,2.217.323,3.86-.041,1.687-.417,3.392.612,3.809,2.299.417,1.687-.612,3.392-2.299,3.809-.573.142-1.174.119-1.735-.065-1.418-.626-1.986-1.535-3.745-.099-1.453,1.105-3.514.897-4.717-.475-.837-.957-2.292-1.055-3.25-.217-.06.052-.117.108-.171.166-.772.87-1.909,1.325-3.068,1.227-1.014-.038-1.987-.41-2.766-1.059-1.51,0-2.681,1.64-2.982,3.342h-1.837c-.04-1.742,1.048-5.106,3.439-5.935Z" fill="url(#linear-gradient-2)" stroke="#464646" stroke-miterlimit="10"/><path d="m26.875,33v13.125h19.25v-13.125h-19.25Z" fill="url(#linear-gradient-3)"/><path d="m46.125,32.125v-5.25h-19.25v5.25h19.25Z" fill="url(#linear-gradient-4)"/><path d="m32.11,30.875c-.75,0-1.359-.609-1.359-1.359s.609-1.359,1.359-1.359,1.36.609,1.36,1.359-.61,1.359-1.36,1.359Z" fill="#fff"/><path d="m32.11,28.655c.475,0,.86.385.86.86s-.385.86-.86.86-.86-.385-.86-.86.385-.86.86-.86m0-1c-1.025,0-1.86.834-1.86,1.86s.834,1.86,1.86,1.86,1.86-.834,1.86-1.86-.834-1.86-1.86-1.86h0Z" fill="#147391"/><path d="m40.89,30.875c-.75,0-1.359-.609-1.359-1.359s.609-1.359,1.359-1.359,1.36.609,1.36,1.359-.61,1.359-1.36,1.359Z" fill="#fff"/><path d="m40.89,28.655c.475,0,.86.385.86.86s-.385.86-.86.86-.86-.385-.86-.86.385-.86.86-.86m0-1c-1.026,0-1.86.834-1.86,1.86s.834,1.86,1.86,1.86,1.86-.834,1.86-1.86-.834-1.86-1.86-1.86h0Z" fill="#147391"/><rect x="26.875" y="36.5" width="19.25" height=".875" fill="#6e6e6e"/><rect x="26.875" y="40.875" width="19.25" height=".875" fill="#6e6e6e"/><rect x="33" y="32.125" width="1" height="13.871" fill="#6e6e6e"/><rect x="40" y="32.125" width="1" height="13.871" fill="#6e6e6e"/><rect x="26.925" y="32" width="19.126" height="1" fill="#147391"/><path d="m45.248,27c.415,0,.752.337.752.752v17.495c0,.415-.337.752-.752.752h-17.495c-.415,0-.752-.337-.752-.752v-17.495c0-.415.337-.752.752-.752h17.495m0-1h-17.495c-.968,0-1.752.785-1.752,1.752v17.495c0,.968.785,1.752,1.752,1.752h17.495c.968,0,1.752-.785,1.752-1.752v-17.495c0-.968-.785-1.752-1.752-1.752h0Z" fill="#464646"/></svg>