<?xml version="1.0" encoding="UTF-8"?>
<svg id="Layer_1" data-name="Layer 1" xmlns="http://www.w3.org/2000/svg" xmlns:xlink="http://www.w3.org/1999/xlink" viewBox="0 0 48 48">
  <defs>
    <linearGradient id="linear-gradient" x1=".5" y1=".5" x2="47.5" y2="47.5" gradientUnits="userSpaceOnUse">
      <stop offset="0" stop-color="#fff"/>
      <stop offset=".2477" stop-color="#f8f8f8"/>
      <stop offset=".6057" stop-color="#e4e4e4"/>
      <stop offset="1" stop-color="#c8c8c8"/>
    </linearGradient>
    <linearGradient id="linear-gradient-2" x1=".3103" y1="6.6893" x2="11.9316" y2="18.3106" xlink:href="#linear-gradient"/>
    <linearGradient id="linear-gradient-3" x1="36.0673" y1="29.6893" x2="47.6886" y2="41.3106" xlink:href="#linear-gradient"/>
    <linearGradient id="linear-gradient-4" x1="36.0673" y1="6.6893" x2="47.6886" y2="18.3106" xlink:href="#linear-gradient"/>
    <linearGradient id="Dark_Blue_Grad_3" data-name="Dark Blue Grad 3" x1="11.5849" y1="6.4135" x2="41.5835" y2="36.4122" gradientUnits="userSpaceOnUse">
      <stop offset="0" stop-color="#73b3c6"/>
      <stop offset=".1774" stop-color="#6aadc0"/>
      <stop offset=".4638" stop-color="#529cb2"/>
      <stop offset=".8215" stop-color="#2b829b"/>
      <stop offset="1" stop-color="#16748f"/>
    </linearGradient>
  </defs>
  <rect x=".5" y=".5" width="47" height="47" fill="url(#linear-gradient)" stroke="#464646" stroke-miterlimit="10"/>
  <path d="m3.4996,3.5h4c1.6557,0,3,1.3443,3,3v11.9999c0,1.6557-1.3443,3-3,3H3.4996V3.5h0Z" fill="url(#linear-gradient-2)" stroke="#464646" stroke-miterlimit="10"/>
  <path d="m40.4993,26.5h4v17.9999h-4c-1.6557,0-3-1.3443-3-3v-11.9999c0-1.6557,1.3443-3,3-3Z" fill="url(#linear-gradient-3)" stroke="#464646" stroke-miterlimit="10"/>
  <path d="m40.4993,3.5h4v17.9999h-4c-1.6557,0-3-1.3443-3-3V6.5c0-1.6557,1.3443-3,3-3Z" fill="url(#linear-gradient-4)" stroke="#464646" stroke-miterlimit="10"/>
  <path d="m37.4991,30.5h-8.9999v-13h9l.0006-10-27.0003-.001v10.0012h7.9998s0,18.9992,0,18.9992c0,2.2094,1.7913,4.0004,4.0007,4l14.9991-.0028v-9.9967Z" fill="url(#Dark_Blue_Grad_3)" stroke="#464646" stroke-linejoin="round"/>
</svg>