<?xml version="1.0" encoding="UTF-8"?>
<svg id="Layer_1" data-name="Layer 1" xmlns="http://www.w3.org/2000/svg" xmlns:xlink="http://www.w3.org/1999/xlink" viewBox="0 0 48 48">
  <defs>
    <linearGradient id="Dark_Blue_Grad" data-name="Dark Blue Grad" x1="20.4999" y1="20.5" x2="27.4999" y2="27.5" gradientUnits="userSpaceOnUse">
      <stop offset="0" stop-color="#73b4c8"/>
      <stop offset=".1747" stop-color="#6aaec2"/>
      <stop offset=".4567" stop-color="#529db5"/>
      <stop offset=".8089" stop-color="#2b839e"/>
      <stop offset="1" stop-color="#147391"/>
    </linearGradient>
    <linearGradient id="Dark_Blue_Grad-2" data-name="Dark Blue Grad" x1="10.6249" y1="10.3749" x2="37.625" y2="37.375" xlink:href="#Dark_Blue_Grad"/>
  </defs>
  <rect x="20.4999" y="20.5" width="7" height="7" fill="url(#Dark_Blue_Grad)" stroke="#464646" stroke-miterlimit="10"/>
  <path d="m47.5,20.5h-6.3515c-1.3921-6.8567-6.792-12.2566-13.6487-13.6485V.5h-7v6.3515c-6.8566,1.3921-12.2563,6.7919-13.6484,13.6484H.5v7h6.3514c1.392,6.8567,6.7918,12.2566,13.6484,13.6487v6.3513h7v-6.3513c6.8568-1.392,12.2567-6.7919,13.6487-13.6487h6.3514s0-6.9999,0-6.9999Zm0,.4996v-.9996m-23.5,15.5001c-6.3513,0-11.5-5.1487-11.5-11.5s5.1487-11.5,11.5-11.5,11.5,5.1487,11.5,11.5-5.1487,11.5-11.5,11.5Z" fill="url(#Dark_Blue_Grad-2)" stroke="#464646" stroke-miterlimit="10"/>
</svg>