<?xml version="1.0" encoding="UTF-8"?>
<svg id="Layer_1" data-name="Layer 1" xmlns="http://www.w3.org/2000/svg" xmlns:xlink="http://www.w3.org/1999/xlink" viewBox="0 0 48 48">
  <defs>
    <linearGradient id="New_Gradient_Swatch_6" data-name="New Gradient Swatch 6" x1="5.7499" y1="7.2501" x2="14.25" y2="15.7502" gradientUnits="userSpaceOnUse">
      <stop offset="0" stop-color="#cce4e9"/>
      <stop offset=".2032" stop-color="#b9dae1"/>
      <stop offset=".7554" stop-color="#8bc1cf"/>
    </linearGradient>
    <linearGradient id="Dark_Blue_Grad_3" data-name="Dark Blue Grad 3" x1="33.75" y1="32.25" x2="42.25" y2="40.75" gradientUnits="userSpaceOnUse">
      <stop offset="0" stop-color="#73b3c6"/>
      <stop offset=".1774" stop-color="#6aadc0"/>
      <stop offset=".4638" stop-color="#529cb2"/>
      <stop offset=".8215" stop-color="#2b829b"/>
      <stop offset="1" stop-color="#16748f"/>
    </linearGradient>
    <linearGradient id="linear-gradient" x1="-3.1894" y1="5.1894" x2="9.432" y2="17.8108" gradientUnits="userSpaceOnUse">
      <stop offset="0" stop-color="#fff"/>
      <stop offset=".2477" stop-color="#f8f8f8"/>
      <stop offset=".6057" stop-color="#e4e4e4"/>
      <stop offset="1" stop-color="#c8c8c8"/>
    </linearGradient>
    <linearGradient id="linear-gradient-2" x1="38.568" y1="30.1894" x2="51.1894" y2="42.8107" xlink:href="#linear-gradient"/>
    <linearGradient id="front_-45_2" data-name="front -45 2" x1="8.4996" y1="8.4996" x2="39.4988" y2="39.4988" gradientUnits="userSpaceOnUse">
      <stop offset="0" stop-color="#f1f1f1"/>
      <stop offset=".5" stop-color="#cacac9"/>
      <stop offset=".6282" stop-color="#c5c5c4"/>
      <stop offset=".7762" stop-color="#b7b7b6"/>
      <stop offset=".9335" stop-color="#a0a09f"/>
      <stop offset=".99" stop-color="#969696"/>
    </linearGradient>
  </defs>
  <rect x="7.5" y="5.5" width="4.9999" height="12.0003" fill="url(#New_Gradient_Swatch_6)" stroke="#464646" stroke-linejoin="round"/>
  <rect x="35.5" y="30.5" width="5" height="12" fill="url(#Dark_Blue_Grad_3)" stroke="#464646" stroke-linejoin="round"/>
  <path d="m.5,1.5001h4c1.6557,0,3,1.3443,3,3v14.0001c0,1.6557-1.3443,3-3,3H.5V1.5001h0Z" fill="url(#linear-gradient)" stroke="#464646" stroke-miterlimit="10"/>
  <path d="m43.5,26.5h4v20.0001h-4c-1.6557,0-3-1.3443-3-3v-14.0001c0-1.6557,1.3443-3,3-3Z" fill="url(#linear-gradient-2)" stroke="#464646" stroke-miterlimit="10"/>
  <path d="m35.4997,29.4998h-4.9997v-14.9998c0-5.5225-4.4766-9.9995-9.9991-10l-8.0009-.0007v14.0007h4.9999v15c0,5.5239,4.4788,10.0015,10.0027,10l7.9971-.0021v-13.9981Z" fill="url(#front_-45_2)" stroke="#464646" stroke-linejoin="round"/>
</svg>