<?xml version="1.0" encoding="UTF-8"?>
<svg id="Layer_1" data-name="Layer 1" xmlns="http://www.w3.org/2000/svg" xmlns:xlink="http://www.w3.org/1999/xlink" viewBox="0 0 48 48">
  <defs>
    <linearGradient id="New_Gradient_Swatch_4" data-name="New Gradient Swatch 4" x1=".5" y1=".5" x2="43" y2="43" gradientUnits="userSpaceOnUse">
      <stop offset="0" stop-color="#fff"/>
      <stop offset=".2284" stop-color="#fafafa"/>
      <stop offset=".4881" stop-color="#ececec"/>
      <stop offset=".7621" stop-color="#d6d5d5"/>
      <stop offset="1" stop-color="#bdbcbc"/>
    </linearGradient>
    <linearGradient id="New_Gradient_Swatch_10" data-name="New Gradient Swatch 10" x1="39.875" y1="10.125" x2="50.625" y2="20.875" gradientUnits="userSpaceOnUse">
      <stop offset="0" stop-color="#f2f2f2"/>
      <stop offset=".99" stop-color="#999"/>
    </linearGradient>
    <linearGradient id="Dark_Blue_Grad" data-name="Dark Blue Grad" x1="6.75" y1="14.75" x2="10.25" y2="18.25" gradientUnits="userSpaceOnUse">
      <stop offset="0" stop-color="#73b4c8"/>
      <stop offset=".1747" stop-color="#6aaec2"/>
      <stop offset=".4567" stop-color="#529db5"/>
      <stop offset=".8089" stop-color="#2b839e"/>
      <stop offset="1" stop-color="#147391"/>
    </linearGradient>
    <linearGradient id="Dark_Blue_Grad-2" data-name="Dark Blue Grad" x1="9.75" y1="14.75" x2="13.25" y2="18.25" xlink:href="#Dark_Blue_Grad"/>
    <linearGradient id="Dark_Blue_Grad-3" data-name="Dark Blue Grad" x1="12.75" y1="14.75" x2="16.25" y2="18.25" xlink:href="#Dark_Blue_Grad"/>
    <linearGradient id="Dark_Blue_Grad-4" data-name="Dark Blue Grad" x1="15.75" x2="19.25" y2="18.25" xlink:href="#Dark_Blue_Grad"/>
    <linearGradient id="Dark_Blue_Grad-5" data-name="Dark Blue Grad" x1="8.75" y1="12.25" x2="17.25" y2="20.75" xlink:href="#Dark_Blue_Grad"/>
    <linearGradient id="Dark_Blue_Grad-6" data-name="Dark Blue Grad" y1="5.75" y2="9.25" xlink:href="#Dark_Blue_Grad"/>
    <linearGradient id="Dark_Blue_Grad-7" data-name="Dark Blue Grad" x1="9.75" y1="5.75" x2="13.25" y2="9.25" xlink:href="#Dark_Blue_Grad"/>
    <linearGradient id="Dark_Blue_Grad-8" data-name="Dark Blue Grad" x1="12.75" y1="5.75" x2="16.25" y2="9.25" xlink:href="#Dark_Blue_Grad"/>
    <linearGradient id="Dark_Blue_Grad-9" data-name="Dark Blue Grad" x1="15.75" y1="5.75" x2="19.25" y2="9.25" xlink:href="#Dark_Blue_Grad"/>
    <linearGradient id="Dark_Blue_Grad-10" data-name="Dark Blue Grad" x1="8.75" y1="3.25" x2="17.25" y2="11.75" xlink:href="#Dark_Blue_Grad"/>
    <linearGradient id="Dark_Blue_Grad-11" data-name="Dark Blue Grad" x1="14.25" y1="29.25" x2="24.75" y2="39.75" xlink:href="#Dark_Blue_Grad"/>
    <linearGradient id="Dark_Blue_Grad-12" data-name="Dark Blue Grad" x1="20.5" y1="30" x2="30.5" y2="40" xlink:href="#Dark_Blue_Grad"/>
    <linearGradient id="Dark_Blue_Grad-13" data-name="Dark Blue Grad" x1="23.25" y1="29.25" x2="33.75" y2="39.75" xlink:href="#Dark_Blue_Grad"/>
    <linearGradient id="Dark_Blue_Grad-14" data-name="Dark Blue Grad" x1="26.25" y1="29.25" x2="36.75" y2="39.75" xlink:href="#Dark_Blue_Grad"/>
    <linearGradient id="Dark_Blue_Grad-15" data-name="Dark Blue Grad" x1="7.25" y1="34.25" x2="17.75" y2="44.75" gradientTransform="translate(-14 53) rotate(-90)" xlink:href="#Dark_Blue_Grad"/>
    <linearGradient id="Dark_Blue_Grad-16" data-name="Dark Blue Grad" x1="10.25" y1="34.25" x2="20.75" y2="44.75" gradientTransform="translate(-14 53) rotate(-90)" xlink:href="#Dark_Blue_Grad"/>
    <linearGradient id="Dark_Blue_Grad-17" data-name="Dark Blue Grad" x1="13.75" y1="34.75" x2="23.25" y2="44.25" gradientTransform="translate(-14 53) rotate(-90)" xlink:href="#Dark_Blue_Grad"/>
    <linearGradient id="Dark_Blue_Grad-18" data-name="Dark Blue Grad" x1="16.25" y1="34.25" x2="26.75" y2="44.75" gradientTransform="translate(-14 53) rotate(-90)" xlink:href="#Dark_Blue_Grad"/>
    <linearGradient id="Dark_Blue_Grad-19" data-name="Dark Blue Grad" x1="19.25" y1="34.25" x2="29.75" y2="44.75" gradientTransform="translate(-14 53) rotate(-90)" xlink:href="#Dark_Blue_Grad"/>
    <linearGradient id="Dark_Blue_Grad-20" data-name="Dark Blue Grad" x1="17.5" y1="26.5" x2="33.5" y2="42.5" xlink:href="#Dark_Blue_Grad"/>
    <linearGradient id="New_Gradient_Swatch_2" data-name="New Gradient Swatch 2" x1="35.3787" y1="5.3787" x2="39.6213" y2="9.6213" gradientUnits="userSpaceOnUse">
      <stop offset="0" stop-color="#afd7e1"/>
      <stop offset=".1588" stop-color="#a3d0dc"/>
      <stop offset=".7059" stop-color="#80bbcd"/>
      <stop offset="1" stop-color="#73b4c8"/>
    </linearGradient>
    <linearGradient id="Dark_Blue_Grad_2" data-name="Dark Blue Grad 2" x1="36.4393" y1="6.4393" x2="38.5607" y2="8.5607" gradientUnits="userSpaceOnUse">
      <stop offset="0" stop-color="#74b3c7"/>
      <stop offset=".1774" stop-color="#6badc1"/>
      <stop offset=".4638" stop-color="#539cb3"/>
      <stop offset=".8215" stop-color="#2c829c"/>
      <stop offset="1" stop-color="#177490"/>
    </linearGradient>
    <linearGradient id="New_Gradient_Swatch_2-2" data-name="New Gradient Swatch 2" x1="35.3787" y1="14.3787" x2="39.6213" y2="18.6213" xlink:href="#New_Gradient_Swatch_2"/>
    <linearGradient id="Dark_Blue_Grad_2-2" data-name="Dark Blue Grad 2" x1="36.4393" y1="15.4393" x2="38.5607" y2="17.5607" xlink:href="#Dark_Blue_Grad_2"/>
  </defs>
  <polygon points="47.5 38.5 38.5 47.5 .5 47.5 .5 .5 47.5 .5 47.5 38.5" fill="url(#New_Gradient_Swatch_4)" stroke="#464646" stroke-miterlimit="10"/>
  <line x1="38.5" y1="29.5" x2="42" y2="29.5" fill="none" stroke="#147391" stroke-miterlimit="10"/>
  <polyline points="47 24.5 43.5 24.5 43.5 6.5 47 6.5" fill="url(#New_Gradient_Swatch_10)" stroke="#6e6e6e" stroke-miterlimit="10"/>
  <line x1="44" y1="8.5" x2="47" y2="8.5" fill="none" stroke="#6e6e6e" stroke-miterlimit="10"/>
  <line x1="44" y1="10.5" x2="47" y2="10.5" fill="none" stroke="#6e6e6e" stroke-miterlimit="10"/>
  <line x1="44" y1="12.5" x2="47" y2="12.5" fill="none" stroke="#6e6e6e" stroke-miterlimit="10"/>
  <line x1="44" y1="14.5" x2="47" y2="14.5" fill="none" stroke="#6e6e6e" stroke-miterlimit="10"/>
  <line x1="44" y1="16.5" x2="47" y2="16.5" fill="none" stroke="#6e6e6e" stroke-miterlimit="10"/>
  <line x1="44" y1="18.5" x2="47" y2="18.5" fill="none" stroke="#6e6e6e" stroke-miterlimit="10"/>
  <line x1="44" y1="20.5" x2="47" y2="20.5" fill="none" stroke="#6e6e6e" stroke-miterlimit="10"/>
  <line x1="44" y1="22.5" x2="47" y2="22.5" fill="none" stroke="#6e6e6e" stroke-miterlimit="10"/>
  <g>
    <line x1="8.5" y1="20" x2="8.5" y2="13" fill="url(#Dark_Blue_Grad)" stroke="#147391" stroke-miterlimit="10"/>
    <line x1="11.5" y1="20" x2="11.5" y2="13" fill="url(#Dark_Blue_Grad-2)" stroke="#147391" stroke-miterlimit="10"/>
    <line x1="14.5" y1="20" x2="14.5" y2="13" fill="url(#Dark_Blue_Grad-3)" stroke="#147391" stroke-miterlimit="10"/>
    <line x1="17.5" y1="20" x2="17.5" y2="13" fill="url(#Dark_Blue_Grad-4)" stroke="#147391" stroke-miterlimit="10"/>
    <rect x="6.5" y="14.5" width="13" height="4" fill="url(#Dark_Blue_Grad-5)" stroke="#147391" stroke-linejoin="round"/>
  </g>
  <g>
    <line x1="8.5" y1="11" x2="8.5" y2="4" fill="url(#Dark_Blue_Grad-6)" stroke="#147391" stroke-miterlimit="10"/>
    <line x1="11.5" y1="11" x2="11.5" y2="4" fill="url(#Dark_Blue_Grad-7)" stroke="#147391" stroke-miterlimit="10"/>
    <line x1="14.5" y1="11" x2="14.5" y2="4" fill="url(#Dark_Blue_Grad-8)" stroke="#147391" stroke-miterlimit="10"/>
    <line x1="17.5" y1="11" x2="17.5" y2="4" fill="url(#Dark_Blue_Grad-9)" stroke="#147391" stroke-miterlimit="10"/>
    <rect x="6.5" y="5.5" width="13" height="4" fill="url(#Dark_Blue_Grad-10)" stroke="#147391" stroke-linejoin="round"/>
  </g>
  <g>
    <line x1="19.5" y1="45" x2="19.5" y2="24" fill="url(#Dark_Blue_Grad-11)" stroke="#147391" stroke-miterlimit="10"/>
    <polyline points="19 16.5 22.5 16.5 22.5 45" fill="none" stroke="#147391" stroke-miterlimit="10"/>
    <line x1="25.5" y1="45" x2="25.5" y2="25" fill="url(#Dark_Blue_Grad-12)" stroke="#147391" stroke-miterlimit="10"/>
    <line x1="28.5" y1="45" x2="28.5" y2="24" fill="url(#Dark_Blue_Grad-13)" stroke="#147391" stroke-miterlimit="10"/>
    <line x1="31.5" y1="45" x2="31.5" y2="24" fill="url(#Dark_Blue_Grad-14)" stroke="#147391" stroke-miterlimit="10"/>
    <line x1="36" y1="40.5" x2="15" y2="40.5" fill="url(#Dark_Blue_Grad-15)" stroke="#147391" stroke-miterlimit="10"/>
    <line x1="36" y1="37.5" x2="15" y2="37.5" fill="url(#Dark_Blue_Grad-16)" stroke="#147391" stroke-miterlimit="10"/>
    <line x1="35" y1="34.5" x2="16" y2="34.5" fill="url(#Dark_Blue_Grad-17)" stroke="#147391" stroke-miterlimit="10"/>
    <line x1="36" y1="31.5" x2="15" y2="31.5" fill="url(#Dark_Blue_Grad-18)" stroke="#147391" stroke-miterlimit="10"/>
    <line x1="36" y1="28.5" x2="15" y2="28.5" fill="url(#Dark_Blue_Grad-19)" stroke="#147391" stroke-miterlimit="10"/>
    <rect x="17.5" y="26.5" width="16" height="16" fill="url(#Dark_Blue_Grad-20)" stroke="#147391" stroke-linejoin="round"/>
    <rect x="19.5" y="28.5" width="12" height="12" fill="none" stroke="#147391" stroke-linejoin="round"/>
  </g>
  <line x1="19.5" y1="7.5" x2="36.4065" y2="7.5" fill="none" stroke="#147391" stroke-miterlimit="10"/>
  <line x1="25.5" y1="7.5" x2="25.5" y2="25" fill="none" stroke="#147391" stroke-miterlimit="10"/>
  <line x1="37.5" y1="1" x2="37.5" y2="17.5" fill="none" stroke="#147391" stroke-miterlimit="10"/>
  <polyline points="30.5 8 30.5 18.4192 38.5 26.4192 38.5 36" fill="none" stroke="#147391" stroke-linejoin="round"/>
  <polyline points="12.5 24 12.5 30.4192 8.5 34.4192 8.5 39" fill="none" stroke="#147391" stroke-linejoin="round"/>
  <line x1="1" y1="7.5" x2="6" y2="7.5" fill="none" stroke="#147391" stroke-miterlimit="10"/>
  <polyline points="6 16.5 4.5 16.5 4.5 21.5" fill="none" stroke="#147391" stroke-linejoin="round"/>
  <circle cx="37.5" cy="7.5" r="3" fill="url(#New_Gradient_Swatch_2)" stroke="#147391" stroke-miterlimit="10"/>
  <circle cx="25.5" cy="7.5" r="1.5" fill="#fff" stroke="#147391" stroke-miterlimit="10"/>
  <circle cx="12.5" cy="24" r="1.5" fill="#fff" stroke="#147391" stroke-miterlimit="10"/>
  <circle cx="8.5" cy="39" r="1.5" fill="#fff" stroke="#147391" stroke-miterlimit="10"/>
  <polyline points="8.5 27 8.5 31.4192 4.5 35.4192 4.5 43" fill="none" stroke="#147391" stroke-linejoin="round"/>
  <circle cx="8.5" cy="27" r="1.5" fill="#fff" stroke="#147391" stroke-miterlimit="10"/>
  <circle cx="4.5" cy="23" r="1.5" fill="#fff" stroke="#147391" stroke-miterlimit="10"/>
  <circle cx="4.5" cy="43" r="1.5" fill="#fff" stroke="#147391" stroke-miterlimit="10"/>
  <circle cx="43.5" cy="29.5" r="1.5" fill="#fff" stroke="#147391" stroke-miterlimit="10"/>
  <line x1="38.5" y1="35.5" x2="42" y2="35.5" fill="none" stroke="#147391" stroke-miterlimit="10"/>
  <circle cx="43.5" cy="35.5" r="1.5" fill="#fff" stroke="#147391" stroke-miterlimit="10"/>
  <circle cx="30.5" cy="7.5" r="1.5" fill="#fff" stroke="#147391" stroke-miterlimit="10"/>
  <circle cx="37.5" cy="7.5" r="1.5" fill="url(#Dark_Blue_Grad_2)"/>
  <circle cx="37.5" cy="16.5" r="3" fill="url(#New_Gradient_Swatch_2-2)" stroke="#147391" stroke-miterlimit="10"/>
  <circle cx="37.5" cy="16.5" r="1.5" fill="url(#Dark_Blue_Grad_2-2)"/>
</svg>