<?xml version="1.0" encoding="UTF-8"?>
<svg id="Layer_1" data-name="Layer 1" xmlns="http://www.w3.org/2000/svg" xmlns:xlink="http://www.w3.org/1999/xlink" viewBox="0 0 48 48">
  <defs>
    <linearGradient id="New_Gradient_Swatch_8" data-name="New Gradient Swatch 8" x1="26.75" y1="14.25" x2="45.25" y2="32.75" gradientUnits="userSpaceOnUse">
      <stop offset="0" stop-color="#727171"/>
      <stop offset="1" stop-color="#424242"/>
    </linearGradient>
    <linearGradient id="linear-gradient" x1="7.4435" y1="4.2024" x2="28.9094" y2="41.3825" gradientUnits="userSpaceOnUse">
      <stop offset="0" stop-color="#cacaca"/>
      <stop offset="1" stop-color="#636363"/>
    </linearGradient>
    <linearGradient id="New_Gradient_Swatch_6" data-name="New Gradient Swatch 6" x1="42.9999" y1="14.9999" x2="48" y2="20" gradientUnits="userSpaceOnUse">
      <stop offset="0" stop-color="#cce4e9"/>
      <stop offset=".2032" stop-color="#b9dae1"/>
      <stop offset=".7554" stop-color="#8bc1cf"/>
    </linearGradient>
    <linearGradient id="New_Gradient_Swatch_6-2" data-name="New Gradient Swatch 6" y1="27.0007" y2="32.0008" xlink:href="#New_Gradient_Swatch_6"/>
  </defs>
  <rect x="28.5" y="12.4999" width="14.9999" height="22.0001" fill="url(#New_Gradient_Swatch_8)" stroke="#464646" stroke-miterlimit="10"/>
  <polyline points="0 8.4999 30.9996 8.4999 41.5001 16 31.4996 21.4167 39.0001 27.5 31.4996 32.4167 36.5001 37 30.9996 38.4999 0 38.4999" fill="url(#linear-gradient)" stroke="#464646" stroke-linejoin="round"/>
  <rect x="43.4999" y="14.4999" width="4.0001" height="6.0001" fill="url(#New_Gradient_Swatch_6)" stroke="#464646" stroke-linejoin="round"/>
  <rect x="43.4999" y="26.5007" width="4.0001" height="6.0001" fill="url(#New_Gradient_Swatch_6-2)" stroke="#464646" stroke-linejoin="round"/>
  <rect x="8" y="11" width="3" height="2" fill="#8b8b8b"/>
  <rect x="26" y="11" width="3" height="2" transform="translate(55.0001 24) rotate(180)" fill="#cacaca"/>
  <rect x="20" y="11" width="3" height="2" fill="#8b8b8b"/>
  <rect x="14" y="11" width="3" height="2" transform="translate(31 24) rotate(180)" fill="#cacaca"/>
  <polygon points="35.0019 13 32.0019 13 32.0019 11 33.6249 11 35.0019 12 35.0019 13" fill="#8b8b8b"/>
  <rect x="2" y="11" width="3" height="2" transform="translate(6.9999 24) rotate(180)" fill="#cacaca"/>
  <rect x="11.0005" y="14.0003" width="3" height="3" fill="#797979"/>
  <rect x="0" y="14" width="2" height="3" fill="#797979"/>
  <rect x="29" y="14" width="3" height="3" transform="translate(61.0001 31.0001) rotate(180)" fill="#cacaca"/>
  <rect x="23" y="14" width="3.0001" height="3.0001" fill="#797979"/>
  <rect x="17.0009" y="14.0003" width="3" height="3" transform="translate(37.0018 31.0006) rotate(180)" fill="#cacaca"/>
  <polygon points="38.0021 17.0003 35.002 17.0003 35.002 14.0003 37.3497 14.0003 38.0021 14.4297 38.0021 17.0003" fill="#797979"/>
  <rect x="5.0001" y="14.0003" width="3.0001" height="3.0001" transform="translate(13.0003 31.0006) rotate(180)" fill="#cacaca"/>
  <rect x="8.0003" y="19.0006" width="3.0001" height="3.0001" fill="#cacaca"/>
  <rect x="26" y="19" width="3.0001" height="3.0001" transform="translate(55.0001 41.0001) rotate(180)" fill="#6e6e6e"/>
  <rect x="20" y="19" width="3.0001" height="3.0001" fill="#cacaca"/>
  <rect x="14.0007" y="19.0006" width="3.0001" height="3.0001" transform="translate(31.0014 41.0012) rotate(180)" fill="#6e6e6e"/>
  <polygon points="32.0018 20.5717 32.0018 19.0006 34.9046 19.0006 32.0018 20.5717" fill="#cacaca"/>
  <rect x="1.9999" y="19.0006" width="3.0001" height="3.0001" transform="translate(6.9999 41.0012) rotate(180)" fill="#6e6e6e"/>
  <rect x="11" y="24" width="3" height="3" fill="#cacaca"/>
  <rect x="0" y="24" width="2" height="3" fill="#cacaca"/>
  <rect x="29" y="24" width="3" height="3" transform="translate(61.0001 51.0001) rotate(180)" fill="#6e6e6e"/>
  <rect x="23" y="24" width="3" height="3" fill="#cacaca"/>
  <rect x="17" y="24" width="3" height="3" transform="translate(37 51) rotate(180)" fill="#6e6e6e"/>
  <polygon points="37.5882 27.0009 35.002 27.0009 35.002 24.9059 37.5882 27.0009" fill="#cacaca"/>
  <rect x="5" y="24" width="3" height="3" transform="translate(13 51) rotate(180)" fill="#6e6e6e"/>
  <rect x="8" y="29" width="3.0001" height="3.0001" fill="#6e6e6e"/>
  <rect x="26" y="29" width="3.0001" height="3.0001" transform="translate(55.0001 61.0001) rotate(180)" fill="#aeaeae"/>
  <rect x="20" y="29" width="3.0001" height="3.0001" fill="#6e6e6e"/>
  <rect x="14" y="29" width="3.0001" height="3.0001" transform="translate(31.0001 61.0001) rotate(180)" fill="#aeaeae"/>
  <polygon points="32.0018 31.5013 32.0018 30.0013 34.2792 30.0013 32.0018 31.5013" fill="#6e6e6e"/>
  <rect x="1.9999" y="29" width="3.0001" height="3.0001" transform="translate(6.9999 61.0001) rotate(180)" fill="#aeaeae"/>
  <rect x="11" y="34" width="3" height="2" fill="#5a5a5a"/>
  <rect x="0" y="34" width="2" height="2" fill="#5a5a5a"/>
  <rect x="29" y="34" width="3" height="2" fill="#9f9f9f"/>
  <rect x="23" y="34" width="3" height="2" fill="#5a5a5a"/>
  <rect x="17" y="34" width="3" height="2" transform="translate(37.0001 70) rotate(180)" fill="#9f9f9f"/>
  <rect x="5" y="34" width="3" height="2" transform="translate(13.0001 70) rotate(180)" fill="#9f9f9f"/>
  <rect x="14" y="37" width="3.0001" height=".9999" fill="#6e6e6e"/>
  <rect x="26" y="37" width="3.0001" height=".9999" fill="#5a5a5a"/>
  <rect x="1.9999" y="37" width="3.0001" height=".9999" fill="#6e6e6e"/>
  <rect x="20" y="37" width="3.0001" height=".9999" transform="translate(43.0001 74.9999) rotate(180)" fill="#cacaca"/>
  <rect x="8" y="37" width="3.0001" height=".9999" transform="translate(19.0001 74.9999) rotate(180)" fill="#cacaca"/>
  <rect x="14.0007" y="37" width="3.0001" height=".9999" fill="#5a5a5a"/>
  <rect x="1.9999" y="37" width="3.0001" height=".9999" fill="#5a5a5a"/>
  <rect x="20" y="37" width="3.0001" height=".9999" transform="translate(43.0001 74.9999) rotate(180)" fill="#9f9f9f"/>
  <rect x="8.0003" y="37" width="3.0001" height=".9999" transform="translate(19.0007 75) rotate(180)" fill="#9f9f9f"/>
  <polygon points="32 9.9999 29 9.9999 29 8.9999 30.8327 8.9999 32 9.819 32 9.9999" fill="#888"/>
  <rect x="17" y="9" width="3" height="1" fill="#888"/>
  <rect x="5" y="9" width="3" height="1" fill="#888"/>
  <rect x="23" y="9" width="3" height="1" transform="translate(49.0001 18.9999) rotate(180)" fill="#cacaca"/>
  <rect x="11" y="9" width="3" height="1" transform="translate(25.0001 18.9999) rotate(180)" fill="#cacaca"/>
  <rect x="0" y="9" width="2" height=".9999" transform="translate(2 18.9999) rotate(180)" fill="#cacaca"/>
</svg>