<?xml version="1.0" encoding="UTF-8"?>
<svg id="Layer_1" data-name="Layer 1" xmlns="http://www.w3.org/2000/svg" xmlns:xlink="http://www.w3.org/1999/xlink" viewBox="0 0 48 48">
  <defs>
    <linearGradient id="linear-gradient" x1="21.2004" y1="10.4001" x2="48.4001" y2="37.5999" gradientUnits="userSpaceOnUse">
      <stop offset="0" stop-color="#fff"/>
      <stop offset=".2477" stop-color="#f8f8f8"/>
      <stop offset=".6057" stop-color="#e4e4e4"/>
      <stop offset="1" stop-color="#c8c8c8"/>
    </linearGradient>
    <linearGradient id="linear-gradient-2" x1="-.4001" y1="10.4001" x2="26.7996" y2="37.5999" xlink:href="#linear-gradient"/>
    <linearGradient id="Dark_Blue_Grad_3" data-name="Dark Blue Grad 3" x1="41.75" y1="37.25" x2="47.25" y2="42.75" gradientUnits="userSpaceOnUse">
      <stop offset="0" stop-color="#73b3c6"/>
      <stop offset=".1774" stop-color="#6aadc0"/>
      <stop offset=".4638" stop-color="#529cb2"/>
      <stop offset=".8215" stop-color="#2b829b"/>
      <stop offset="1" stop-color="#16748f"/>
    </linearGradient>
    <linearGradient id="Dark_Blue_Grad_3-2" data-name="Dark Blue Grad 3" x1="41.75" y1="21.75" x2="47.25" y2="27.25" xlink:href="#Dark_Blue_Grad_3"/>
    <linearGradient id="Dark_Blue_Grad_3-3" data-name="Dark Blue Grad 3" y1="6.25" y2="11.75" xlink:href="#Dark_Blue_Grad_3"/>
    <linearGradient id="Dark_Blue_Grad_3-4" data-name="Dark Blue Grad 3" x1=".7502" y1="37.2498" x2="6.2502" y2="42.7498" xlink:href="#Dark_Blue_Grad_3"/>
    <linearGradient id="Dark_Blue_Grad_3-5" data-name="Dark Blue Grad 3" x1=".7502" y1="21.7498" x2="6.2502" y2="27.2498" xlink:href="#Dark_Blue_Grad_3"/>
    <linearGradient id="Dark_Blue_Grad_3-6" data-name="Dark Blue Grad 3" x1=".75" y1="6.25" x2="6.25" y2="11.75" xlink:href="#Dark_Blue_Grad_3"/>
  </defs>
  <path d="m31,3.5h10.5v41h-10.5c-3.8634,0-7-3.1366-7-7V10.5c0-3.8634,3.1366-7,7-7Z" fill="url(#linear-gradient)" stroke="#464646" stroke-miterlimit="10"/>
  <path d="m6.5,3.5h10.5c3.8634,0,7,3.1366,7,7v27c0,3.8634-3.1366,7-7,7H6.5V3.5h0Z" fill="url(#linear-gradient-2)" stroke="#464646" stroke-miterlimit="10"/>
  <rect x="41.5" y="37.5" width="6" height="5" fill="url(#Dark_Blue_Grad_3)" stroke="#464646" stroke-linejoin="round"/>
  <rect x="41.5" y="22" width="6" height="5" fill="url(#Dark_Blue_Grad_3-2)" stroke="#464646" stroke-linejoin="round"/>
  <rect x="41.5" y="6.5" width="6" height="5" fill="url(#Dark_Blue_Grad_3-3)" stroke="#464646" stroke-linejoin="round"/>
  <rect x=".5" y="37.5" width="6" height="4.9996" fill="url(#Dark_Blue_Grad_3-4)" stroke="#464646" stroke-linejoin="round"/>
  <rect x=".5" y="22" width="6" height="4.9995" fill="url(#Dark_Blue_Grad_3-5)" stroke="#464646" stroke-linejoin="round"/>
  <rect x=".5" y="6.5" width="6" height="5" fill="url(#Dark_Blue_Grad_3-6)" stroke="#464646" stroke-linejoin="round"/>
</svg>