<?xml version="1.0" encoding="UTF-8"?>
<svg id="Layer_1" data-name="Layer 1" xmlns="http://www.w3.org/2000/svg" xmlns:xlink="http://www.w3.org/1999/xlink" viewBox="0 0 48 48">
  <defs>
    <linearGradient id="linear-gradient" x1="31.318" y1="20.8181" x2="37.682" y2="27.1821" gradientUnits="userSpaceOnUse">
      <stop offset="0" stop-color="#b1b1b1"/>
      <stop offset="1" stop-color="#7d7d7d"/>
    </linearGradient>
    <linearGradient id="linear-gradient-2" x1="10.8167" y1="16.8179" x2="17.1807" y2="23.1818" xlink:href="#linear-gradient"/>
    <linearGradient id="linear-gradient-3" x1="-2.6893" y1="3.6893" x2="8.932" y2="15.3106" gradientUnits="userSpaceOnUse">
      <stop offset="0" stop-color="#fff"/>
      <stop offset=".2477" stop-color="#f8f8f8"/>
      <stop offset=".6057" stop-color="#e4e4e4"/>
      <stop offset="1" stop-color="#c8c8c8"/>
    </linearGradient>
    <linearGradient id="linear-gradient-4" x1="39.0681" y1="32.6894" x2="50.6894" y2="44.3107" xlink:href="#linear-gradient-3"/>
    <linearGradient id="linear-gradient-5" x1="39.0677" y1="3.688" x2="50.6898" y2="15.3102" xlink:href="#linear-gradient-3"/>
    <linearGradient id="New_Gradient_Swatch_6" data-name="New Gradient Swatch 6" x1="9.4815" y1="2.5187" x2="45.4815" y2="38.5187" gradientUnits="userSpaceOnUse">
      <stop offset="0" stop-color="#cce4e9"/>
      <stop offset=".2032" stop-color="#b9dae1"/>
      <stop offset=".7554" stop-color="#8bc1cf"/>
    </linearGradient>
    <linearGradient id="Dark_Blue_Grad_4" data-name="Dark Blue Grad 4" x1="13.5" y1=".5" x2="33.5001" y2="20.5002" gradientUnits="userSpaceOnUse">
      <stop offset="0" stop-color="#75b2c5"/>
      <stop offset=".1774" stop-color="#6cacbf"/>
      <stop offset=".4638" stop-color="#549cb1"/>
      <stop offset=".8215" stop-color="#2d829a"/>
      <stop offset="1" stop-color="#18748e"/>
    </linearGradient>
  </defs>
  <circle cx="34.5" cy="24.0001" r="4.5" fill="url(#linear-gradient)" stroke="#464646" stroke-linejoin="round"/>
  <circle cx="13.9987" cy="19.9998" r="4.5" fill="url(#linear-gradient-2)" stroke="#464646" stroke-linejoin="round"/>
  <path d="m.5.5h4c1.6557,0,3,1.3443,3,3v11.9999c0,1.6558-1.3443,3-3,3H.5V.5h0Z" fill="url(#linear-gradient-3)" stroke="#464646" stroke-miterlimit="10"/>
  <path d="m43.5002,29.5001h3.9998v17.9999h-3.9999c-1.6557,0-3-1.3443-3-3v-11.9999c0-1.6558,1.3443-3.0001,3.0001-3.0001Z" fill="url(#linear-gradient-4)" stroke="#464646" stroke-miterlimit="10"/>
  <path d="m43.5001.4985h3.9999v17.9999h-3.9999c-1.6557,0-3-1.3443-3-3V3.4985c0-1.6557,1.3443-3,3-3Z" fill="url(#linear-gradient-5)" stroke="#464646" stroke-miterlimit="10"/>
  <path d="m40.4999,33.5004l-11.9999-.0004V14.5s12,0,12,0l.0006-9.9988-33.0007-.001v10h11v24.0023c0,2.7617,2.239,5.0004,5.0006,5l16.9994-.0022v-10Z" fill="url(#New_Gradient_Swatch_6)" stroke="#464646" stroke-linejoin="round"/>
  <polygon points="34.5 1.5 12.5 1.5 12.5 17.5001 15.5002 17.5001 15.5002 22.5004 31.5 22.5004 31.4998 17.5001 34.4999 17.5001 34.5 1.5" fill="url(#Dark_Blue_Grad_4)" stroke="#464646" stroke-linejoin="round"/>
</svg>