<?xml version="1.0" encoding="UTF-8"?>
<svg id="Layer_1" data-name="Layer 1" xmlns="http://www.w3.org/2000/svg" xmlns:xlink="http://www.w3.org/1999/xlink" viewBox="0 0 48 48">
  <defs>
    <linearGradient id="linear-gradient" x1="14.5533" y1="10.4467" x2="40.6599" y2="36.5533" gradientUnits="userSpaceOnUse">
      <stop offset="0" stop-color="#fff"/>
      <stop offset=".2477" stop-color="#f8f8f8"/>
      <stop offset=".6057" stop-color="#e4e4e4"/>
      <stop offset="1" stop-color="#c8c8c8"/>
    </linearGradient>
    <linearGradient id="New_Gradient_Swatch_7" data-name="New Gradient Swatch 7" x1="8" y1="20" x2="15" y2="27" gradientUnits="userSpaceOnUse">
      <stop offset="0" stop-color="#cce4e9"/>
      <stop offset=".2214" stop-color="#c5e0e6"/>
      <stop offset=".5419" stop-color="#b1d5de"/>
      <stop offset=".9212" stop-color="#92c5d1"/>
      <stop offset="1" stop-color="#8bc1cf"/>
    </linearGradient>
    <linearGradient id="Dark_Blue_Grad_3" data-name="Dark Blue Grad 3" x1="-2.875" y1="16.375" x2="11.375" y2="30.625" gradientUnits="userSpaceOnUse">
      <stop offset="0" stop-color="#73b3c6"/>
      <stop offset=".1774" stop-color="#6aadc0"/>
      <stop offset=".4638" stop-color="#529cb2"/>
      <stop offset=".8215" stop-color="#2b829b"/>
      <stop offset="1" stop-color="#16748f"/>
    </linearGradient>
  </defs>
  <path d="m47.5,23.5c0,8.2842-6.7157,15-15,15-5.7546,0-10.7462-3.2442-13.2618-8h-10.7382v-13.9999h10.7382c2.5156-4.7559,7.5071-8.0001,13.2618-8.0001,8.2843,0,15,6.7157,15,15Zm-15-8c-4.4183,0-8,3.5817-8,8s3.5817,8,8,8,8-3.5817,8-8-3.5817-8-8-8Z" fill="url(#linear-gradient)" stroke="#464646" stroke-miterlimit="10"/>
  <rect x="8.4999" y="19.5" width="6.0001" height="8" fill="url(#New_Gradient_Swatch_7)" stroke="#147391" stroke-miterlimit="10"/>
  <polyline points="0 13.5 8.5 13.5 8.5 33.5 0 33.5" fill="url(#Dark_Blue_Grad_3)" stroke="#464646" stroke-miterlimit="10"/>
</svg>