<?xml version="1.0" encoding="UTF-8"?>
<svg id="Layer_1" data-name="Layer 1" xmlns="http://www.w3.org/2000/svg" xmlns:xlink="http://www.w3.org/1999/xlink" viewBox="0 0 48 48">
  <defs>
    <linearGradient id="linear-gradient" x1=".5001" y1=".5001" x2="35.5" y2="35.5" gradientUnits="userSpaceOnUse">
      <stop offset="0" stop-color="#fff"/>
      <stop offset=".2477" stop-color="#f8f8f8"/>
      <stop offset=".6057" stop-color="#e4e4e4"/>
      <stop offset="1" stop-color="#c8c8c8"/>
    </linearGradient>
  </defs>
  <path d="m24.0001,46.9999L.5001,23.4999V.5001h22.9999l23.5,23.5-22.9999,22.9999ZM7,4.5c-1.3807,0-2.5,1.1193-2.5,2.5s1.1193,2.5,2.5,2.5,2.5-1.1193,2.5-2.5-1.1193-2.5-2.5-2.5Z" fill="url(#linear-gradient)" stroke="#464646" stroke-linejoin="round"/>
  <g>
    <path d="m20.9189,10.6934c-.4385.4375-.916.6562-1.4321.6523s-.9971-.2275-1.4424-.6729c-.437-.4365-.6606-.9053-.6704-1.4072-.0107-.5.1992-.9648.6289-1.3945.4385-.4395.9131-.6504,1.4229-.6367.5107.0156.9893.2461,1.4365.6934.4351.4346.6558.9023.6626,1.4004.0073.5-.1953.9541-.606,1.3652Zm-.8491-.8184c.4956-.4961.5454-.9414.1504-1.3359-.1938-.1934-.4106-.2773-.6504-.252-.2402.0264-.4814.1611-.7251.4043-.5093.5098-.5586.9688-.1479,1.3799.3921.3916.8501.3271,1.373-.1963Z" fill="#147391"/>
    <path d="m21.7192,14.1553c-.1846-.0566-.3994-.207-.6421-.4502-.5771-.5762-.5654-1.1641.0337-1.7637l1.2144-1.2148-.4297-.4297.6035-.6035.4297.4297.5723-.5723,1.0488.584-.8052.8047.5952.5957-.6035.6035-.5952-.5957-1.0718,1.0723c-.2769.2764-.3052.5234-.0859.7422.0864.0869.2002.1504.3418.1914l-.606.6064Z" fill="#147391"/>
    <path d="m24.6943,17.1934l-.8154-.8164,1.5073-1.5068c.3882-.3877.4404-.7246.1577-1.0068-.1416-.1426-.3125-.2051-.5127-.1875-.2007.0176-.3843.1104-.5518.2773l-1.5122,1.5127-.8184-.8184,3.9258-3.9258.8184.8184-1.6675,1.667.0103.0107c.5034-.1064.9287.0117,1.2744.3574.6006.6006.5381,1.2637-.187,1.9893l-1.6289,1.6289Z" fill="#147391"/>
    <path d="m28.8169,19.1299l-1.73-1.7295c-.3574.4121-.3076.8477.1499,1.3047.2886.2891.6138.4746.9761.5625l-.5903.5898c-.376-.1143-.7603-.3672-1.1523-.7588-.4277-.4277-.6421-.8779-.6431-1.3506s.2129-.9219.6411-1.3506c.2744-.2744.5762-.4648.9048-.5713.3291-.1055.6562-.1191.9819-.0381.3252.0801.6157.2471.8711.5029.3799.3799.563.791.5508,1.2344-.0137.4424-.2188.8633-.6157,1.2598l-.3442.3447Zm-.2563-1.2607c.3799-.3809.416-.7246.1089-1.0312-.1294-.1289-.2988-.1885-.5063-.1777-.2085.0117-.4014.0879-.5791.2324l.9766.9766Z" fill="#147391"/>
    <path d="m31.8545,20.5254c-.0435-.1504-.1313-.292-.2642-.4248-.1797-.1797-.3833-.2549-.6113-.2246-.228.0283-.4551.1572-.6831.3857l-1.2666,1.2656-.8184-.8184,2.6519-2.6514.8184.8184-.4922.4922.0103.0107c.4878-.2305.9014-.1758,1.2373.1602.0845.084.1416.1621.1719.2324l-.7539.7539Z" fill="#147391"/>
    <path d="m15.772,15.9336c-.4385.4385-.9023.6826-1.3911.7324-.4883.0508-.9131-.1055-1.2739-.4658-.3213-.3213-.4395-.6885-.3569-1.1025l-.0103-.0107-1.5278,1.5283-.8184-.8184,3.8716-3.8721.8184.8184-.3989.3994.0103.0098c.5093-.1094.9478.0215,1.3154.3887.3398.3398.4878.7207.4424,1.1445-.0444.4219-.2715.8389-.6807,1.248Zm-.8491-.8281c.4663-.4668.5171-.8809.1548-1.2432-.1729-.1729-.3765-.2451-.6113-.2178-.2344.0273-.4521.1416-.6523.3418l-.2119.2119c-.1865.1865-.2881.3857-.3047.5977-.0166.2109.0532.3936.2085.5498.1885.1875.4053.2617.6514.2188s.5015-.1953.7656-.459Z" fill="#147391"/>
    <path d="m17.1084,20.0723l-.7744-.7754.3804-.3799-.0103-.0107c-.4751.1191-.8867.0039-1.2354-.3438-.2539-.2539-.3818-.5293-.3862-.8242-.0029-.2949.1172-.5645.3608-.8086.5122-.5117,1.1138-.5039,1.8047.0234l.8154.625c.29-.291.2783-.5918-.0361-.9062-.3193-.3203-.7139-.5254-1.1831-.6191l.6162-.6162c.1587.0479.3652.1533.6211.3154.2554.1621.4585.3184.6084.4688.7563.7559.7578,1.5117.0034,2.2656l-1.585,1.5859Zm.4863-2.0254l-.5435-.4199c-.2993-.2324-.5518-.2461-.7588-.0391-.0933.0938-.1382.2012-.1348.3242s.062.2402.1758.3545c.1519.1514.3296.2236.5327.2158.2026-.0068.3857-.0938.5498-.2578l.1787-.1777Z" fill="#147391"/>
    <path d="m21.3989,20.5352c-.0439-.1504-.1313-.291-.2646-.4248-.1792-.1787-.3828-.2549-.6108-.2256-.2275.0293-.4556.1582-.6831.3857l-1.2666,1.2666-.8179-.8184,2.6519-2.6514.8179.8174-.4922.4922.0107.0117c.4878-.2305.9009-.1768,1.2373.1602.0845.084.1416.1621.1709.2324l-.7534.7539Z" fill="#147391"/>
    <path d="m21.6528,24.5537c-.1846-.0566-.3994-.207-.6426-.4502-.5767-.5762-.5654-1.165.0337-1.7637l1.2144-1.2148-.4292-.4297.6035-.6035.4292.4297.5723-.5723,1.0488.583-.8052.8057.5957.5957-.6035.6035-.5957-.5957-1.0718,1.0713c-.2769.2764-.3052.5244-.0854.7432.0859.0859.2002.1504.3418.1914l-.606.6064Z" fill="#147391"/>
    <path d="m11.8496,19.7422l-.5664.3652-.4795-.4805-.7842.5.5356.5361-.583.3496-.5151-.5146-1.0981.6943-.5181-.5186,1.0854-.707-.5928-.5928-1.0884.7041-.5176-.5176,1.0801-.7129-.4814-.4805.562-.3711.4868.4863.7793-.5039-.5229-.5234.5537-.3779.5308.5303,1.1138-.7295.5303.5303-1.1128.7305.5928.5938,1.1187-.7256.5259.5264-1.1138.7295.479.4795Zm-1.5688-.6377l-.6006-.6006-.7847.5.5981.5977.7871-.4971Z" fill="#147391"/>
    <path d="m12.9839,24.2891c-.3472.3477-.749.4941-1.2056.4414s-.9077-.3018-1.353-.7471c-.3833-.3838-.6328-.7568-.7485-1.1221l.7119-.7109c.064.4258.2637.8066.5986,1.1406.2158.2168.4258.3359.6309.3574.2046.0215.3853-.0469.542-.2031.1641-.1641.2197-.3633.167-.5977-.0522-.2334-.2056-.4775-.4595-.7314l-.334-.334.6265-.626.3081.3076c.4834.4834.8857.5645,1.207.2432.3022-.3027.2676-.6387-.1035-1.0098-.2539-.2539-.5762-.415-.9658-.4844l.668-.668c.3882.125.7578.3643,1.1084.7148.3604.3604.5684.7344.624,1.1211.0552.3867-.0586.7217-.3418,1.0049-.4868.4873-1.0366.5439-1.6494.1738l-.0127.0127c.2275.29.3394.5898.3364.9004-.0034.3115-.1221.584-.355.8164Z" fill="#147391"/>
    <path d="m18.4424,24.4434l-2.3413,2.3418.5234.5234-.6108.6113-.5234-.5234-.7612.7607-.7456-.7451.7612-.7617-1.6182-1.6182.6396-.6396c.7349-.041,1.4478-.125,2.1372-.248.6899-.123,1.2832-.2754,1.7808-.459l.7583.7578Zm-3.9722.7109l.8853.8848,1.2974-1.2969c-.6265.1875-1.3545.3252-2.1826.4121Z" fill="#147391"/>
    <path d="m20.1128,29.7764c-.625.625-1.2227.9883-1.7944,1.0908-.5713.1016-1.0781-.0684-1.52-.5107-.8838-.8838-.7051-1.9463.5361-3.1875.6421-.6416,1.252-1.0137,1.8296-1.1123.5771-.0996,1.0933.0781,1.5469.5312.8633.8633.6636,1.9268-.5981,3.1885Zm-.8594-.8086c.8628-.8623,1.1289-1.46.7974-1.792-.354-.3535-.9756-.0859-1.8643.8027-.8374.8379-1.0825,1.4297-.7354,1.7773.3384.3379.9385.0762,1.8022-.7881Z" fill="#147391"/>
    <path d="m24.6235,30.625l-2.3413,2.3418.5234.5234-.6108.6104-.5234-.5234-.7612.7607-.7456-.7451.7612-.7607-1.6187-1.6191.6396-.6396c.7354-.041,1.4482-.124,2.1377-.2471.6899-.123,1.2832-.2764,1.7803-.46l.7588.7588Zm-3.9722.7109l.8853.8848,1.2974-1.2969c-.6265.1875-1.3545.3242-2.1826.4121Z" fill="#147391"/>
    <path d="m27.1587,36.7812c-.376.376-.79.627-1.2432.7529-.4521.126-.9072.1172-1.3657-.0264-.4585-.1445-.8823-.4121-1.2725-.8027l-1.3154-1.3145,3.7134-3.7139,1.3154,1.3154c1.3188,1.3184,1.375,2.582.168,3.7891Zm-.8911-.8711c.3555-.3555.5312-.7383.5244-1.1484-.0054-.4092-.1899-.7959-.5522-1.1582l-.4097-.4102-2.354,2.3545.4146.415c.3555.3555.7456.5303,1.1709.5254.4238-.0059.8262-.1973,1.2061-.5781Z" fill="#147391"/>
  </g>
</svg>