<?xml version="1.0" encoding="UTF-8"?>
<svg id="Layer_1" data-name="Layer 1" xmlns="http://www.w3.org/2000/svg" xmlns:xlink="http://www.w3.org/1999/xlink" viewBox="0 0 48 48">
  <defs>
    <linearGradient id="linear-gradient" x1=".5" y1=".5" x2="46.5" y2="46.5" gradientUnits="userSpaceOnUse">
      <stop offset="0" stop-color="#fff"/>
      <stop offset=".2477" stop-color="#f8f8f8"/>
      <stop offset=".6057" stop-color="#e4e4e4"/>
      <stop offset="1" stop-color="#c8c8c8"/>
    </linearGradient>
    <linearGradient id="Dark_Blue_Grad" data-name="Dark Blue Grad" x1="20.5" y1="20.5" x2="26.5" y2="26.5" gradientUnits="userSpaceOnUse">
      <stop offset="0" stop-color="#73b4c8"/>
      <stop offset=".1747" stop-color="#6aaec2"/>
      <stop offset=".4567" stop-color="#529db5"/>
      <stop offset=".8089" stop-color="#2b839e"/>
      <stop offset="1" stop-color="#147391"/>
    </linearGradient>
    <linearGradient id="Dark_Blue_Grad-2" data-name="Dark Blue Grad" x1="12" y1="12" x2="35" y2="35" xlink:href="#Dark_Blue_Grad"/>
  </defs>
  <rect x=".5" y=".5" width="46" height="46" fill="url(#linear-gradient)" stroke="#464646" stroke-miterlimit="10"/>
  <rect x="20.5" y="20.5" width="6" height="6" fill="url(#Dark_Blue_Grad)" stroke="#464646" stroke-miterlimit="10"/>
  <path d="m43.5,20.5h-5.3011c-1.1932-6.0001-5.8217-10.7254-11.6989-11.9435V3.5h-6v5.3013c-6.0001,1.1932-10.7254,5.8216-11.9436,11.6987H3.5v6h5.3013c1.1931,6.0001,5.8216,10.7255,11.6987,11.9436v5.0563h6v-5.301c6.0002-1.1931,10.7255-5.8217,11.9436-11.6989h5.0564v-6Zm-20,13.032c-5.5405,0-10.0319-4.4915-10.0319-10.0319s4.4915-10.0319,10.0319-10.0319,10.0319,4.4914,10.0319,10.0319-4.4915,10.0319-10.0319,10.0319Z" fill="url(#Dark_Blue_Grad-2)" stroke="#464646" stroke-miterlimit="10"/>
</svg>