<?xml version="1.0" encoding="UTF-8"?>
<svg id="Layer_1" data-name="Layer 1" xmlns="http://www.w3.org/2000/svg" xmlns:xlink="http://www.w3.org/1999/xlink" viewBox="0 0 48 48">
  <defs>
    <linearGradient id="linear-gradient" x1=".5001" y1=".5001" x2="35.5" y2="35.5" gradientUnits="userSpaceOnUse">
      <stop offset="0" stop-color="#fff"/>
      <stop offset=".2477" stop-color="#f8f8f8"/>
      <stop offset=".6057" stop-color="#e4e4e4"/>
      <stop offset="1" stop-color="#c8c8c8"/>
    </linearGradient>
    <linearGradient id="Dark_Blue_Grad_4" data-name="Dark Blue Grad 4" x1="16.1856" y1="15.0866" x2="31.8146" y2="30.7156" gradientUnits="userSpaceOnUse">
      <stop offset="0" stop-color="#75b2c5"/>
      <stop offset=".1774" stop-color="#6cacbf"/>
      <stop offset=".4638" stop-color="#549cb1"/>
      <stop offset=".8215" stop-color="#2d829a"/>
      <stop offset="1" stop-color="#18748e"/>
    </linearGradient>
  </defs>
  <path d="m24.0001,46.9999L.5001,23.4999V.5001h22.9999l23.5,23.5-22.9999,22.9999ZM7,4.5c-1.3807,0-2.5,1.1193-2.5,2.5s1.1193,2.5,2.5,2.5,2.5-1.1193,2.5-2.5-1.1193-2.5-2.5-2.5Z" fill="url(#linear-gradient)" stroke="#464646" stroke-linejoin="round"/>
  <path d="m33.0001,20c0,8.9338-9,18.53-9,18.53,0,0-9-9.5962-9-18.53,0-4.9706,4.0294-9,9-9s9,4.0294,9,9Zm-9-5c-2.7614,0-5,2.2386-5,5s2.2386,5,5,5,5-2.2386,5-5-2.2386-5-5-5Z" fill="url(#Dark_Blue_Grad_4)" stroke="#147391" stroke-miterlimit="10"/>
</svg>