<?xml version="1.0" encoding="UTF-8"?>
<svg id="Layer_1" data-name="Layer 1" xmlns="http://www.w3.org/2000/svg" xmlns:xlink="http://www.w3.org/1999/xlink" viewBox="0 0 48 48">
  <defs>
    <linearGradient id="linear-gradient" x1="-2.9393" y1="4.9385" x2="10.182" y2="18.0599" gradientUnits="userSpaceOnUse">
      <stop offset="0" stop-color="#fff"/>
      <stop offset=".2477" stop-color="#f8f8f8"/>
      <stop offset=".6057" stop-color="#e4e4e4"/>
      <stop offset="1" stop-color="#c8c8c8"/>
    </linearGradient>
    <linearGradient id="linear-gradient-2" x1="37.818" y1="29.9401" x2="50.9393" y2="43.0615" xlink:href="#linear-gradient"/>
    <linearGradient id="Dark_Blue_Grad_4" data-name="Dark Blue Grad 4" x1="7.1029" y1="6.8963" x2="41.1028" y2="40.8963" gradientUnits="userSpaceOnUse">
      <stop offset="0" stop-color="#75b2c5"/>
      <stop offset=".1774" stop-color="#6cacbf"/>
      <stop offset=".4638" stop-color="#549cb1"/>
      <stop offset=".8215" stop-color="#2d829a"/>
      <stop offset="1" stop-color="#18748e"/>
    </linearGradient>
  </defs>
  <path d="m.5,1.4992h5.0001c1.6557,0,3,1.3443,3,3v14.0001c0,1.6557-1.3443,3-3,3H.5V1.4992h0Z" fill="url(#linear-gradient)" stroke="#464646" stroke-miterlimit="10"/>
  <path d="m42.4999,26.5008h5.0001v20.0001h-5.0001c-1.6557,0-3-1.3443-3-3v-14.0001c0-1.6557,1.3443-3,3-3Z" fill="url(#linear-gradient-2)" stroke="#464646" stroke-miterlimit="10"/>
  <path d="m39.4999,30.499h-8.9999V12.4997c0-3.8659-3.1338-6.9998-6.9997-7l-15.0003-.0006v12.0001h9.9999v19.1125c.0606,3.2701,2.7294,5.8892,6,5.8889l14.9999-.0015v-12.0001Z" fill="url(#Dark_Blue_Grad_4)" stroke="#464646" stroke-linejoin="round"/>
</svg>