<?xml version="1.0" encoding="UTF-8"?>
<svg id="Layer_1" data-name="Layer 1" xmlns="http://www.w3.org/2000/svg" xmlns:xlink="http://www.w3.org/1999/xlink" viewBox="0 0 48 48">
  <defs>
    <linearGradient id="New_Gradient_Swatch_6" data-name="New Gradient Swatch 6" x1="31.9999" y1="14" x2="52" y2="34" gradientUnits="userSpaceOnUse">
      <stop offset="0" stop-color="#cce4e9"/>
      <stop offset=".2032" stop-color="#b9dae1"/>
      <stop offset=".7554" stop-color="#8bc1cf"/>
    </linearGradient>
    <linearGradient id="New_Gradient_Swatch_10" data-name="New Gradient Swatch 10" x1="28.523" y1="35.7561" x2="34.4871" y2="46.0862" gradientTransform="translate(7.0072 -9.9198)" gradientUnits="userSpaceOnUse">
      <stop offset="0" stop-color="#f2f2f2"/>
      <stop offset=".99" stop-color="#999"/>
    </linearGradient>
    <linearGradient id="New_Gradient_Swatch_10-2" data-name="New Gradient Swatch 10" x1="28.0475" y1="34.3334" x2="34.0116" y2="44.6635" gradientTransform="translate(7.4826 -9.9971)" xlink:href="#New_Gradient_Swatch_10"/>
    <linearGradient id="New_Gradient_Swatch_10-3" data-name="New Gradient Swatch 10" x1="21.6206" y1="22.3595" x2="26.4864" y2="30.7874" gradientTransform="translate(12.3691 -11.5121)" xlink:href="#New_Gradient_Swatch_10"/>
    <linearGradient id="New_Gradient_Swatch_10-4" data-name="New Gradient Swatch 10" x1="22.9905" y1="25.0286" x2="27.8564" y2="33.4565" gradientTransform="translate(10.9991 -11.181)" xlink:href="#New_Gradient_Swatch_10"/>
    <linearGradient id="linear-gradient" x1="5.2437" y1="1.4725" x2="31.2562" y2="46.5275" gradientUnits="userSpaceOnUse">
      <stop offset="0" stop-color="#b0b0b0"/>
      <stop offset="1" stop-color="#616161"/>
    </linearGradient>
  </defs>
  <rect x="36.4999" y="9.5" width="11.0001" height="29" fill="url(#New_Gradient_Swatch_6)" stroke="#464646" stroke-linejoin="round"/>
  <rect x="33.5122" y="27.0014" width="10" height="8" transform="translate(24.4629 -16.4) rotate(34.6575)" fill="url(#New_Gradient_Swatch_10)" stroke="#6e6e6e" stroke-linejoin="round"/>
  <rect x="33.5122" y="25.5014" width="10" height="8" transform="translate(11.3358 -10.6852) rotate(18.4782)" fill="url(#New_Gradient_Swatch_10-2)" stroke="#6e6e6e" stroke-linejoin="round"/>
  <rect x="32.3433" y="11.7979" width="8.1585" height="6.5268" transform="translate(10.8964 -14.9697) rotate(27.1699)" fill="url(#New_Gradient_Swatch_10-3)" stroke="#6e6e6e" stroke-linejoin="round"/>
  <rect x="32.3433" y="14.7981" width="8.1585" height="6.5268" transform="translate(16.7336 -17.5076) rotate(34.6575)" fill="url(#New_Gradient_Swatch_10-4)" stroke="#6e6e6e" stroke-linejoin="round"/>
  <polyline points="0 4.5 36.5 4.5 36.5 43.5 0 43.5" fill="url(#linear-gradient)" stroke="#464646" stroke-linejoin="round"/>
  <rect x="0" y="6" width="6" height="2" fill="#5c5c5c"/>
  <rect x="12" y="6" width="6" height="2" fill="#5c5c5c"/>
  <rect x="24" y="6" width="6" height="2" fill="#5c5c5c"/>
  <rect x="6" y="8" width="6" height="2" fill="#5c5c5c"/>
  <rect x="18" y="8" width="6" height="2" fill="#a0d4e3"/>
  <rect x="6.0006" y="4.9999" width="6.0003" height=".9999" fill="#5c5c5c"/>
  <rect x="18" y="5" width="6" height="1" fill="#5c5c5c"/>
  <rect x="30" y="8" width="6" height="2" fill="#5c5c5c"/>
  <rect x="30" y="5" width="6" height="1" fill="#a0d4e3"/>
  <rect x="0" y="10" width="6" height="3" fill="#5c5c5c"/>
  <rect x="12" y="10" width="6" height="3" fill="#5c5c5c"/>
  <rect x="24" y="10" width="6" height="3" fill="#5c5c5c"/>
  <rect x="6" y="13" width="6" height="3" fill="#a0d4e3"/>
  <rect x="18" y="13" width="6" height="3" fill="#5c5c5c"/>
  <rect x="30" y="13" width="6" height="3" fill="#5c5c5c"/>
  <rect x="0" y="16.0003" width="6" height="3.0003" fill="#5c5c5c"/>
  <rect x="12.0005" y="16.0003" width="5.9995" height="2.9997" fill="#5c5c5c"/>
  <rect x="24" y="16" width="6" height="3" fill="#5c5c5c"/>
  <rect x="6.0003" y="19" width="6.0001" height="3.0008" fill="#5c5c5c"/>
  <rect x="18" y="19" width="5.9999" height="3" fill="#5c5c5c"/>
  <rect x="30" y="19" width="6" height="3" fill="#a0d4e3"/>
  <rect x="0" y="22.0005" width="5.9998" height="2.9995" fill="#5c5c5c"/>
  <rect x="12.0005" y="22" width="5.9989" height="3" fill="#5c5c5c"/>
  <rect x="24" y="22" width="6" height="3" fill="#5c5c5c"/>
  <rect x="6" y="25" width="5.9999" height="3" fill="#5c5c5c"/>
  <rect x="18" y="25" width="6" height="3" fill="#a0d4e3"/>
  <rect x="30" y="25" width="6" height="3" fill="#5c5c5c"/>
  <rect x="0" y="28" width="6" height="3" fill="#5c5c5c"/>
  <rect x="12" y="28" width="6" height="3" fill="#5c5c5c"/>
  <rect x="24" y="28" width="6.0003" height="3.0001" fill="#5c5c5c"/>
  <rect x="6" y="31" width="6" height="3" fill="#a0d4e3"/>
  <rect x="18" y="31" width="6" height="3" fill="#5c5c5c"/>
  <rect x="30" y="31" width="6" height="3" fill="#5c5c5c"/>
  <rect x="0" y="34" width="6" height="3" fill="#5c5c5c"/>
  <rect x="12" y="34" width="6" height="3" fill="#5c5c5c"/>
  <rect x="24" y="34" width="6" height="3" fill="#5c5c5c"/>
  <rect x="0" y="39" width="6" height="2" fill="#5c5c5c"/>
  <rect x="12" y="39" width="6" height="2" fill="#5c5c5c"/>
  <rect x="24" y="39" width="6" height="2" fill="#5c5c5c"/>
  <rect x="6" y="37" width="6" height="2" fill="#5c5c5c"/>
  <rect x="18" y="37" width="6" height="2" fill="#5c5c5c"/>
  <rect x="30" y="37" width="6" height="2" fill="#a0d4e3"/>
  <rect x="6" y="41" width="6" height="2" fill="#5c5c5c"/>
  <rect x="18" y="41" width="6" height="2" fill="#a0d4e3"/>
  <rect x="30" y="41" width="6" height="2" fill="#5c5c5c"/>
</svg>